<!DOCTYPE svg PUBLIC "-//W3C//DTD SVG 1.1//EN" "http://www.w3.org/Graphics/SVG/1.1/DTD/svg11.dtd">
<!-- Uploaded to: SVG Repo, www.svgrepo.com, Transformed by: SVG Repo Mixer Tools -->
<svg fill="#ffffff" width="800px" height="800px" viewBox="0 0 24 24" role="img" xmlns="http://www.w3.org/2000/svg" stroke="#ffffff">
<g id="SVGRepo_bgCarrier" stroke-width="0"/>
<g id="SVGRepo_tracerCarrier" stroke-linecap="round" stroke-linejoin="round"/>
<g id="SVGRepo_iconCarrier">
<path d="M14.668 24c-3.857 0-6.935-3.039-6.935-6.974a6.98 6.98 0 0 1 1.812-4.714l-4.714 4.714-2.474-2.474 5.319-5.26c.72-.72 1.09-1.656 1.09-2.688V0h3.487v6.604c0 2.026-.72 3.74-2.123 5.143l-.156.156a6.945 6.945 0 0 1 4.694-1.812c3.955 0 6.975 3.136 6.975 6.935A6.943 6.943 0 0 1 14.668 24zm0-10.714c-2.123 0-3.779 1.753-3.779 3.74 0 2.045 1.675 3.78 3.78 3.78a3.804 3.804 0 0 0 3.818-3.78c0-2.065-1.715-3.74-3.819-3.74z"/>
</g>
</svg>