<svg version="1.2" xmlns="http://www.w3.org/2000/svg" viewBox="0 0 1086 1542" width="1086" height="1542">
	<title>peloton-svg</title>
	<style>
		.s0 { fill: #ffffff } 
	</style>
	<path id="Layer" class="s0" d="m1012.4 1042.3c-129.5 224.7-395 321.5-632.1 246.7l-111.3 193c-7.7 13.4-18 25.2-30.3 34.6-12.3 9.5-26.3 16.4-41.3 20.4-14.9 4-30.5 5-45.9 3-15.3-2-30.1-7-43.5-14.8-13.4-7.8-25.2-18.1-34.6-30.4-9.4-12.3-16.4-26.3-20.4-41.3-4-15-5-30.6-3-45.9 2.1-15.4 7.1-30.2 14.8-43.6l376-652.1c7.7-13.4 18-25.2 30.3-34.6 12.3-9.5 26.3-16.4 41.3-20.4 14.9-4 30.5-5 45.9-3 15.3 2 30.1 7 43.5 14.8 13.4 7.8 25.2 18.1 34.6 30.4 9.4 12.3 16.3 26.3 20.4 41.3 4 14.9 5 30.5 3 45.9-2 15.4-7.1 30.2-14.8 43.6-7.7 13.4-18 25.2-30.3 34.6-12.3 9.5-26.3 16.4-41.3 20.4-14.9 4-30.5 5-45.9 3-15.3-2-30.1-7.1-43.5-14.8l-117.9 204.4c168.8 97.7 385.5 39.5 483-129.6 97.5-169 39.5-386.1-129.4-483.7-20-11.6-41.2-21.3-63.1-28.8-21.9-7.5-44.5-12.8-67.5-15.8-23-3-46.2-3.8-69.3-2.2-23.2 1.5-46.1 5.4-68.4 11.4-22.4 6-44.2 14.1-65 24.4-20.8 10.2-40.5 22.5-58.9 36.6-18.4 14.2-35.4 30.1-50.6 47.5-15.3 17.5-28.7 36.4-40.3 56.5l-205.5 356.5c-12.9-36.8-21.8-74.8-26.5-113.5-4.7-38.7-5.3-77.8-1.7-116.6 3.7-38.8 11.5-77.1 23.3-114.2 11.8-37.1 27.6-72.9 47.1-106.6 129.5-224.6 395-321.4 632.2-246.6l111.3-193c7.7-13.4 18-25.2 30.2-34.6 12.3-9.5 26.3-16.4 41.3-20.4 15-4 30.6-5.1 45.9-3 15.4 2 30.2 7 43.6 14.7 13.4 7.8 25.1 18.1 34.6 30.4 9.4 12.3 16.3 26.4 20.3 41.4 4 14.9 5 30.5 3 45.9-2 15.4-7 30.2-14.8 43.6l-111.3 193.1c183.4 168.2 232.3 446.9 102.8 671.4z"/>
</svg>