<!DOCTYPE svg PUBLIC "-//W3C//DTD SVG 1.1//EN" "http://www.w3.org/Graphics/SVG/1.1/DTD/svg11.dtd">
<!-- Uploaded to: SVG Repo, www.svgrepo.com, Transformed by: SVG Repo Mixer Tools -->
<svg width="800px" height="800px" viewBox="0 0 48 48" id="b" xmlns="http://www.w3.org/2000/svg" fill="#ffffff" stroke="#ffffff" stroke-width="0.9120000000000001">
<g id="SVGRepo_bgCarrier" stroke-width="0"/>
<g id="SVGRepo_tracerCarrier" stroke-linecap="round" stroke-linejoin="round" stroke="#CCCCCC" stroke-width="1.6320000000000001">
<defs>
<style>.c{fill:none;stroke:#ffffff;stroke-linecap:round;stroke-linejoin:round;}</style>
</defs>
<path class="c" d="m7.3244,31.275v6.2873c0,3.7954,4.1086,6.1675,7.3955,4.2698l23.4906-13.5623c3.2869-1.8977,3.2869-6.6419,0-8.5396L14.7199,6.1679c-3.2869-1.8977-7.3955.4744-7.3955,4.2698v11.7893"/>
<path class="c" d="m39.3727,41.2385l-24.6528-14.2333c-3.2869-1.8977-7.3955.4744-7.3955,4.2698v6.2873c0,3.7954,4.1086,6.1675,7.3955,4.2698"/>
</g>
<g id="SVGRepo_iconCarrier">
<defs>
<style>.c{fill:none;stroke:#ffffff;stroke-linecap:round;stroke-linejoin:round;}</style>
</defs>
<path class="c" d="m7.3244,31.275v6.2873c0,3.7954,4.1086,6.1675,7.3955,4.2698l23.4906-13.5623c3.2869-1.8977,3.2869-6.6419,0-8.5396L14.7199,6.1679c-3.2869-1.8977-7.3955.4744-7.3955,4.2698v11.7893"/>
<path class="c" d="m39.3727,41.2385l-24.6528-14.2333c-3.2869-1.8977-7.3955.4744-7.3955,4.2698v6.2873c0,3.7954,4.1086,6.1675,7.3955,4.2698"/>
</g>
</svg>