<svg width="206" height="213" viewBox="0 0 206 213" fill="none" xmlns="http://www.w3.org/2000/svg">
<path d="M23.7244 102.804L23.7012 103.819L86.0202 105.244L86.0434 104.229L23.7244 102.804Z" fill="#EBEBEB"/>
<path d="M112.875 104.423L112.076 105.049L149.567 152.846L150.366 152.219L112.875 104.423Z" fill="#EBEBEB"/>
<path d="M50.9343 26.4842L50.0859 27.0425L90.5745 88.5633L91.4228 88.005L50.9343 26.4842Z" fill="#EBEBEB"/>
<path d="M87.3181 116.727L23.3887 173.287L24.0616 174.048L87.9911 117.488L87.3181 116.727Z" fill="#EBEBEB"/>
<path d="M188.993 102.806H129.582V103.821H188.993V102.806Z" fill="#EBEBEB"/>
<path d="M60.2063 26.28C61.8822 19.2616 57.5512 12.2134 50.5328 10.5375C43.5144 8.86163 36.4663 13.1926 34.7904 20.211C33.1144 27.2294 37.4454 34.2775 44.4638 35.9534C51.4822 37.6293 58.5304 33.2984 60.2063 26.28Z" fill="#EBEBEB"/>
<path d="M43.5566 21.3572C43.5556 22.1709 43.796 22.9666 44.2474 23.6437C44.6987 24.3207 45.3407 24.8487 46.0922 25.1608C46.8436 25.4729 47.6708 25.5551 48.469 25.3969C49.2672 25.2388 50.0005 24.8475 50.5762 24.2725C51.152 23.6974 51.5442 22.9646 51.7033 22.1666C51.8624 21.3686 51.7813 20.5413 51.4701 19.7895C51.159 19.0376 50.6318 18.395 49.9553 17.9428C49.2788 17.4906 48.4834 17.2493 47.6697 17.2493C46.5797 17.2493 45.5343 17.6819 44.7631 18.4522C43.9919 19.2224 43.558 20.2673 43.5566 21.3572Z" fill="white"/>
<path d="M40.566 32.6962V34.3922C41.7679 35.1418 43.0831 35.6922 44.4607 36.0222C46.2009 36.4525 48.0098 36.5294 49.7803 36.2486C51.5508 35.9678 53.247 35.3348 54.7687 34.3871V32.6962C54.7687 30.8108 54.0197 29.0026 52.6865 27.6694C51.3533 26.3363 49.5451 25.5873 47.6597 25.5873C45.7743 25.5873 43.9661 26.3363 42.6329 27.6694C41.2998 29.0026 40.5508 30.8108 40.5508 32.6962H40.566Z" fill="white"/>
<path d="M192.587 117.171C197.284 111.773 201.682 105.852 201.042 99.3274C200.615 95.0925 197.695 90.8881 192.587 90.8881C187.479 90.8881 184.549 95.0925 184.122 99.3274C183.472 105.852 187.89 111.773 192.587 117.171ZM187.941 99.3985C187.941 98.482 188.213 97.5861 188.722 96.8239C189.231 96.0617 189.954 95.4675 190.801 95.1163C191.647 94.7651 192.579 94.6727 193.478 94.8508C194.377 95.0289 195.203 95.4694 195.852 96.1167C196.5 96.7641 196.943 97.5892 197.123 98.4878C197.303 99.3865 197.212 100.318 196.863 101.166C196.514 102.013 195.921 102.738 195.16 103.248C194.399 103.759 193.504 104.033 192.587 104.035C191.976 104.037 191.371 103.918 190.807 103.685C190.242 103.452 189.729 103.11 189.297 102.678C188.865 102.246 188.523 101.733 188.291 101.169C188.058 100.604 187.939 99.999 187.941 99.3883V99.3985Z" fill="#EBEBEB"/>
<path d="M176.719 159.855C178.007 163.163 178.763 166.654 178.958 170.199H188.129V169.945L188.052 169.239C187.938 168.023 187.736 166.816 187.448 165.629C186.974 163.678 186.293 161.783 185.417 159.977C185.4 159.933 185.369 159.896 185.328 159.872C185.288 159.848 185.24 159.839 185.194 159.845H176.719V159.855Z" fill="#EBEBEB"/>
<path d="M176.967 182.985H185.391C185.436 182.99 185.482 182.98 185.52 182.954C185.558 182.929 185.586 182.892 185.599 182.848C187.038 179.836 187.888 176.577 188.102 173.246C188.109 173.208 188.117 173.171 188.128 173.134V172.88H187.991H179.115C178.952 172.88 178.962 172.88 178.947 173.048C178.891 173.784 178.846 174.52 178.774 175.256C178.653 176.422 178.465 177.58 178.211 178.725C177.904 180.124 177.503 181.502 177.012 182.848L176.967 182.985Z" fill="#EBEBEB"/>
<path d="M141.535 185.656L141.606 185.777C142.322 186.87 143.121 187.906 143.998 188.875C145.05 190.067 146.222 191.147 147.496 192.099C149.951 193.963 152.73 195.356 155.692 196.207C156.843 196.538 158.015 196.789 159.201 196.959L159.546 197.015H159.749L159.947 196.888L159.724 196.73C157.153 194.981 154.905 192.801 153.077 190.286C152.043 188.867 151.136 187.36 150.365 185.782C150.349 185.74 150.32 185.704 150.281 185.68C150.243 185.656 150.197 185.645 150.152 185.65H141.52L141.535 185.656Z" fill="#EBEBEB"/>
<path d="M149.965 170.199H161.801V159.86H152.56C152.519 159.854 152.478 159.863 152.444 159.886C152.411 159.908 152.386 159.943 152.377 159.982C151.528 161.926 150.896 163.957 150.493 166.04C150.282 167.126 150.129 168.223 150.036 169.325C150.016 169.61 149.99 169.899 149.965 170.199Z" fill="#EBEBEB"/>
<path d="M150.035 172.961C150.035 173.205 150.035 173.469 150.071 173.692C150.121 174.271 150.162 174.845 150.243 175.419C150.355 176.211 150.477 177.003 150.634 177.79C150.984 179.516 151.494 181.206 152.158 182.837C152.17 182.885 152.198 182.926 152.238 182.954C152.279 182.982 152.327 182.995 152.376 182.99H161.861V172.961H150.035Z" fill="#EBEBEB"/>
<path d="M164.467 159.921V170.28H176.024C176.024 170.016 175.999 169.772 175.973 169.503C175.912 168.924 175.867 168.345 175.775 167.772C175.633 166.893 175.486 166.015 175.298 165.146C174.909 163.403 174.349 161.702 173.627 160.069C173.614 160.028 173.587 159.993 173.55 159.97C173.514 159.947 173.472 159.937 173.429 159.942H164.467V159.921Z" fill="#EBEBEB"/>
<path d="M164.455 173.098V182.985H173.671C173.716 182.989 173.76 182.977 173.797 182.952C173.834 182.927 173.862 182.89 173.874 182.848C174.575 181.166 175.103 179.417 175.449 177.628C175.621 176.708 175.753 175.779 175.87 174.85C175.946 174.246 175.961 173.631 176.002 173.017C176.005 172.997 176.005 172.976 176.002 172.956H164.602C164.48 172.951 164.455 172.986 164.455 173.098Z" fill="#EBEBEB"/>
<path d="M137.416 170.275H147.11C147.309 166.704 148.073 163.187 149.375 159.855H140.331C140.287 159.849 140.242 159.858 140.204 159.882C140.166 159.905 140.138 159.94 140.123 159.982C139.086 162.032 138.335 164.213 137.889 166.467C137.65 167.666 137.492 168.881 137.416 170.102C137.411 170.158 137.416 170.199 137.416 170.275Z" fill="#EBEBEB"/>
<path d="M137.406 172.885C137.406 173.118 137.406 173.342 137.437 173.565C137.503 174.439 137.604 175.312 137.757 176.175C138.115 178.181 138.714 180.136 139.539 181.999C139.671 182.299 139.813 182.594 139.95 182.893C139.96 182.923 139.979 182.948 140.005 182.965C140.031 182.981 140.062 182.988 140.092 182.985H149.1L148.781 182.071C147.885 179.406 147.342 176.635 147.166 173.829C147.166 173.55 147.13 173.271 147.12 172.991C147.12 172.92 147.12 172.885 147.019 172.89H137.406V172.885Z" fill="#EBEBEB"/>
<path d="M141.799 157.215C141.8 157.228 141.8 157.242 141.799 157.255H150.431C150.474 157.26 150.517 157.251 150.554 157.229C150.59 157.207 150.619 157.173 150.634 157.133C151.762 154.885 153.175 152.791 154.839 150.903C155.822 149.814 156.903 148.818 158.068 147.927C158.647 147.481 159.251 147.064 159.84 146.638L159.937 146.561L159.82 146.48C159.82 146.429 159.856 146.374 159.876 146.297C156.255 146.714 152.767 147.905 149.648 149.79C146.528 151.674 143.852 154.208 141.799 157.22V157.215Z" fill="#EBEBEB"/>
<path d="M166.111 196.898C166.191 196.921 166.273 196.934 166.355 196.939C167.281 196.814 168.198 196.634 169.102 196.4C172.76 195.47 176.158 193.72 179.039 191.282C180.134 190.37 181.144 189.36 182.056 188.266C182.739 187.439 183.368 186.569 183.94 185.661L183.98 185.579H175.962C175.919 185.576 175.876 185.587 175.841 185.611C175.805 185.635 175.778 185.67 175.764 185.711C174.943 187.373 173.971 188.955 172.86 190.439C171.836 191.79 170.698 193.051 169.458 194.207C168.439 195.172 167.344 196.054 166.182 196.842L166.111 196.898Z" fill="#EBEBEB"/>
<path d="M166.217 146.546C166.572 146.81 166.999 147.11 167.41 147.425C168.789 148.494 170.07 149.684 171.239 150.979C172.818 152.708 174.168 154.633 175.255 156.707C175.321 156.839 175.382 156.976 175.458 157.103C175.473 157.123 175.491 157.14 175.512 157.154C175.533 157.167 175.556 157.175 175.58 157.179C175.722 157.179 175.865 157.179 176.012 157.179H183.73C179.429 151.086 173.656 147.45 166.303 146.338L166.354 146.434L166.217 146.546Z" fill="#EBEBEB"/>
<path d="M153.498 185.661C154.591 187.575 155.908 189.351 157.423 190.952C158.758 192.384 160.256 193.655 161.887 194.74V185.661H153.498Z" fill="#EBEBEB"/>
<path d="M164.471 185.666V194.572C167.809 192.275 170.56 189.226 172.504 185.671L164.471 185.666Z" fill="#EBEBEB"/>
<path d="M153.758 157.179H161.796V148.699C160.147 149.773 158.633 151.041 157.287 152.477C155.951 153.918 154.769 155.494 153.758 157.179Z" fill="#EBEBEB"/>
<path d="M164.467 148.963V157.25H172.185C170.299 153.92 167.655 151.081 164.467 148.963Z" fill="#EBEBEB"/>
<path d="M0.000553131 118.389H28.7207L28.7207 89.669H0.000553131L0.000553131 118.389Z" fill="#EBEBEB"/>
<path d="M1.40234 116.983H27.3145L27.3145 91.0708H1.40234L1.40234 116.983Z" fill="#DBDBDB"/>
<path d="M5.59569 97.2552C5.49355 97.7691 5.55937 98.3023 5.78344 98.7759C6.00751 99.2495 6.37795 99.6385 6.84006 99.8855C7.30217 100.132 7.83144 100.224 8.34973 100.147C8.86801 100.07 9.34783 99.8289 9.71832 99.4584C10.0888 99.0879 10.3303 98.6081 10.4072 98.0898C10.4841 97.5716 10.3923 97.0423 10.1454 96.5802C9.89842 96.1181 9.5094 95.7476 9.03577 95.5236C8.56215 95.2995 8.02901 95.2337 7.51511 95.3358C7.04147 95.4306 6.60648 95.6635 6.26493 96.005C5.92337 96.3466 5.69052 96.7816 5.59569 97.2552Z" fill="#C7C7C7"/>
<path d="M8.5918 110.26H27.3188L17.9553 99.7587L8.5918 110.26Z" fill="#C7C7C7"/>
<path d="M1.40625 110.26H16.8631L9.13469 103.42L1.40625 110.26Z" fill="#A6A6A6"/>
<path d="M27.3184 110.26H1.40625V116.983H27.3184V110.26Z" fill="#A6A6A6"/>
<path d="M45.7104 167.151V191.525H42.6637V197.583L36.6871 191.525H4.07227V167.151H45.7104Z" fill="white"/>
<path d="M45.71 167.152C45.7658 174.509 45.9994 184.553 46.0146 191.825H45.71H42.6633L42.9933 191.495L43.039 197.553V198.467L42.3891 197.817L36.3769 191.83L36.6867 191.957C26.8713 191.957 13.2525 192.058 3.57422 192.018V191.51L3.64023 167.136V166.7C14.2427 166.781 35.1227 166.984 45.71 167.136V167.152ZM45.71 167.152C35.3309 167.304 14.4458 167.507 4.07184 167.583L4.50346 167.152L4.57963 191.525L4.07184 191.017C13.5623 191.017 27.2419 191.063 36.8695 191.083L36.9964 191.21L42.9324 197.304L42.2875 197.568L42.3332 191.51V191.18C42.5313 191.18 45.4408 191.18 45.7049 191.18L45.4002 191.485C45.4662 184.472 45.6033 174.22 45.7049 167.111L45.71 167.152Z" fill="#EBEBEB"/>
<path d="M17.213 179.46C17.214 179.853 17.0985 180.237 16.8809 180.565C16.6634 180.892 16.3536 181.147 15.9909 181.298C15.6282 181.449 15.2289 181.489 14.8434 181.413C14.4579 181.337 14.1037 181.148 13.8255 180.871C13.5473 180.593 13.3577 180.24 13.2807 179.854C13.2037 179.469 13.2427 179.07 13.3928 178.707C13.543 178.343 13.7974 178.033 14.124 177.815C14.4506 177.596 14.8347 177.48 15.2276 177.48C15.7533 177.48 16.2575 177.688 16.6297 178.059C17.0019 178.431 17.2117 178.934 17.213 179.46Z" fill="#EBEBEB"/>
<path d="M27.1013 179.46C27.1013 179.852 26.9852 180.235 26.7676 180.56C26.55 180.886 26.2407 181.14 25.8788 181.29C25.517 181.44 25.1188 181.479 24.7346 181.402C24.3505 181.326 23.9976 181.137 23.7207 180.86C23.4437 180.583 23.2551 180.231 23.1787 179.846C23.1023 179.462 23.1415 179.064 23.2914 178.702C23.4413 178.34 23.6951 178.031 24.0208 177.813C24.3464 177.596 24.7293 177.48 25.121 177.48C25.6458 177.481 26.1487 177.69 26.5198 178.061C26.8909 178.432 27.1 178.935 27.1013 179.46Z" fill="#EBEBEB"/>
<path d="M36.9923 179.46C36.9933 179.853 36.8776 180.238 36.6598 180.565C36.4421 180.892 36.132 181.148 35.769 181.298C35.406 181.449 35.0064 181.489 34.6208 181.413C34.2352 181.336 33.881 181.147 33.603 180.869C33.325 180.591 33.1358 180.237 33.0594 179.851C32.9829 179.466 33.0227 179.066 33.1736 178.703C33.3245 178.34 33.5798 178.03 33.907 177.812C34.2343 177.594 34.6189 177.479 35.012 177.48C35.5368 177.481 36.0397 177.69 36.4108 178.061C36.7819 178.432 36.991 178.935 36.9923 179.46Z" fill="#EBEBEB"/>
<path d="M122.605 120.143C131.897 110.85 131.897 95.7843 122.605 86.4919C113.313 77.1995 98.2467 77.1995 88.9543 86.4919C79.6619 95.7843 79.6619 110.85 88.9543 120.143C98.2467 129.435 113.313 129.435 122.605 120.143Z" fill="#EBEBEB"/>
<path d="M204.534 166.72C198.243 175.24 191.682 185.132 190.083 195.821C190.079 195.839 190.079 195.858 190.083 195.876C190.086 195.895 190.094 195.912 190.104 195.928C190.114 195.943 190.128 195.957 190.143 195.967C190.159 195.978 190.176 195.985 190.195 195.988C190.213 195.992 190.232 195.992 190.25 195.989C190.268 195.985 190.286 195.978 190.301 195.967C190.317 195.957 190.33 195.944 190.341 195.928C190.351 195.913 190.358 195.895 190.362 195.877C191.088 192.961 192.018 190.1 193.145 187.316C197.283 186.178 201.34 185.244 203.514 181.136C205.733 176.916 205.448 171.412 205.037 166.811C205.001 166.568 204.646 166.552 204.534 166.72Z" fill="#6B7280"/>
<path d="M193.205 187.239C196.034 180.892 199.664 174.545 204.275 169.305C204.306 169.269 204.356 169.305 204.326 169.355C201.305 173.072 199.009 177.119 196.77 181.237C198.852 179.12 201.137 177.226 203.112 174.982C203.148 174.936 203.209 174.982 203.173 175.048C201.213 177.399 199.075 179.953 196.521 181.694C195.844 182.96 195.152 184.227 194.444 185.493C194.617 185.396 194.795 185.31 194.952 185.223C194.983 185.223 195.013 185.254 194.983 185.269C194.785 185.371 194.592 185.472 194.394 185.559C194.064 186.158 193.733 186.757 193.378 187.356C193.332 187.488 193.144 187.371 193.205 187.239Z" fill="#263238"/>
<path d="M195.309 185.026C197.001 184.077 198.617 182.999 200.143 181.801C200.184 181.766 200.245 181.801 200.199 181.857C198.725 183.134 197.108 184.236 195.38 185.142C195.299 185.183 195.233 185.066 195.309 185.026Z" fill="#263238"/>
<path d="M189.356 194.232C189.362 194.258 189.376 194.281 189.397 194.298C189.418 194.315 189.444 194.324 189.471 194.324C189.497 194.324 189.523 194.315 189.544 194.298C189.565 194.281 189.579 194.258 189.585 194.232C189.615 190.713 189.585 187.178 189.641 183.639C190.545 181.821 192.479 180.816 193.825 179.354C194.792 178.289 195.634 177.117 196.333 175.86C197.955 172.85 198.947 169.542 199.248 166.136C199.619 162.368 198.192 149.943 196.602 150.395C195.78 150.618 193.114 156.772 192.408 158.809C191.269 162.159 190.436 165.606 189.92 169.106C188.62 177.393 188.727 185.899 189.356 194.232Z" fill="#6B7280"/>
<path d="M189.331 179.049C189.524 174.596 190.524 170.097 191.464 165.781C192.479 161.124 193.662 156.742 196.034 152.578C196.044 152.566 196.059 152.558 196.074 152.555C196.09 152.552 196.107 152.555 196.121 152.563C196.135 152.57 196.146 152.583 196.152 152.598C196.159 152.612 196.16 152.629 196.155 152.644C194.557 155.873 193.32 159.269 192.469 162.77C192.626 162.516 192.819 162.262 192.977 162.043C193.043 161.947 193.2 162.043 193.134 162.135C192.92 162.511 192.668 162.865 192.383 163.191C192.383 163.191 192.383 163.191 192.352 163.191C191.53 166.517 190.935 169.924 190.433 173.316C190.467 173.27 190.505 173.226 190.544 173.184C190.57 173.184 190.616 173.184 190.595 173.225C190.534 173.336 190.463 173.448 190.392 173.56C190.138 175.286 189.884 177.003 189.666 178.709C192.713 176.084 195.353 172.996 196.831 169.188C196.831 169.188 196.866 169.188 196.856 169.188C195.409 173.133 193.129 176.647 189.615 179.044C189.549 179.501 189.488 179.963 189.422 180.42C189.422 180.511 189.26 180.486 189.26 180.395C189.26 179.988 189.26 179.582 189.295 179.176C189.289 179.165 189.285 179.154 189.283 179.141C189.282 179.129 189.283 179.117 189.286 179.105C189.289 179.093 189.295 179.082 189.303 179.072C189.31 179.063 189.32 179.055 189.331 179.049Z" fill="#263238"/>
<path d="M190.775 172.595C193.121 169.096 195.309 165.699 197.025 161.83C197.025 161.789 197.117 161.83 197.102 161.865C195.654 165.704 193.633 169.599 190.891 172.686C190.878 172.697 190.861 172.703 190.844 172.703C190.827 172.703 190.81 172.697 190.797 172.687C190.783 172.676 190.774 172.661 190.77 172.645C190.766 172.628 190.767 172.61 190.775 172.595Z" fill="#263238"/>
<path d="M193.892 160.967C194.862 159.25 195.888 157.58 196.802 155.828C196.827 155.777 196.893 155.828 196.873 155.868C196.123 157.698 195.172 159.438 194.039 161.058C194.027 161.077 194.008 161.091 193.985 161.097C193.963 161.102 193.939 161.098 193.92 161.086C193.9 161.074 193.886 161.054 193.881 161.032C193.876 161.01 193.88 160.986 193.892 160.967Z" fill="#263238"/>
<path d="M186.971 184.056C186.925 186.387 186.651 188.709 186.153 190.987C186.189 191.241 186.224 191.495 186.26 191.749C186.977 189.231 187.393 186.636 187.499 184.02C187.52 183.983 187.531 183.941 187.531 183.898C187.531 183.856 187.52 183.814 187.499 183.776C187.601 180.267 187.34 176.757 186.722 173.301C185.635 166.832 183.254 160.606 178.74 155.777C178.702 155.743 178.658 155.718 178.609 155.704C178.56 155.691 178.509 155.689 178.46 155.699C178.41 155.709 178.364 155.73 178.324 155.761C178.284 155.793 178.253 155.833 178.232 155.879C176.409 160.51 177.044 166.035 178.597 170.65C179.433 173.149 180.631 175.511 182.152 177.663C183.741 179.846 185.716 181.679 186.971 184.056Z" fill="#6B7280"/>
<path d="M179.282 157.935C183.557 164.877 186.533 173.103 186.899 181.293C186.899 181.435 186.66 181.476 186.64 181.329C186.538 180.588 186.426 179.861 186.31 179.135C184.542 177.439 182.725 175.652 181.46 173.55C181.458 173.542 181.458 173.533 181.461 173.525C181.463 173.517 181.468 173.511 181.475 173.506C181.481 173.501 181.489 173.498 181.498 173.497C181.506 173.497 181.514 173.499 181.521 173.504C182.989 175.306 184.562 177.018 186.233 178.633C185.924 176.82 185.563 175.037 185.131 173.281L184.796 172.884C184.72 172.798 184.842 172.671 184.923 172.758L185.025 172.869C184.424 170.457 183.677 168.083 182.791 165.76C181.699 164.465 180.485 163.343 179.693 161.779C179.688 161.776 179.685 161.771 179.682 161.766C179.68 161.761 179.678 161.755 179.679 161.749C179.679 161.744 179.68 161.738 179.683 161.733C179.686 161.728 179.69 161.724 179.695 161.721C179.7 161.717 179.705 161.716 179.711 161.715C179.717 161.715 179.723 161.716 179.728 161.718C179.733 161.72 179.738 161.724 179.742 161.728C179.745 161.733 179.748 161.738 179.749 161.744C180.384 162.637 181.003 163.536 181.724 164.369C182.014 164.699 182.329 165.009 182.628 165.329C181.639 162.807 180.466 160.362 179.119 158.012C179.118 157.992 179.123 157.973 179.133 157.956C179.142 157.94 179.157 157.926 179.175 157.918C179.192 157.91 179.212 157.907 179.231 157.91C179.25 157.913 179.268 157.922 179.282 157.935Z" fill="#263238"/>
<path d="M180.147 166.497C181.533 168.355 183.107 170.132 184.392 172.082C184.427 172.133 184.346 172.194 184.3 172.148C182.65 170.6 181.254 168.487 180.055 166.563C180.02 166.492 180.106 166.446 180.147 166.497Z" fill="#263238"/>
<path d="M184.585 172.484L184.64 172.544C184.647 172.548 184.653 172.552 184.657 172.558C184.662 172.564 184.665 172.571 184.666 172.578C184.667 172.585 184.667 172.593 184.664 172.6C184.662 172.607 184.658 172.613 184.653 172.618C184.648 172.623 184.642 172.627 184.635 172.629C184.628 172.631 184.62 172.632 184.613 172.631C184.606 172.63 184.599 172.627 184.593 172.622C184.587 172.618 184.583 172.612 184.58 172.605L184.519 172.55C184.478 172.509 184.544 172.443 184.585 172.484Z" fill="#263238"/>
<path d="M172.585 171.28C173.088 175.159 174.648 178.825 177.094 181.877C178.112 183.071 179.368 184.039 180.781 184.721C182.365 185.503 184.025 186.407 185.666 187.052C186.445 189.035 187.023 191.092 187.392 193.191C187.448 193.013 187.499 192.825 187.549 192.647C186.498 183.609 180.649 175.89 173.169 170.924C173.111 170.876 173.04 170.846 172.964 170.841C172.889 170.835 172.814 170.853 172.749 170.892C172.685 170.931 172.634 170.99 172.605 171.059C172.575 171.129 172.568 171.206 172.585 171.28Z" fill="#6B7280"/>
<path d="M175.194 173.946C175.143 173.9 175.194 173.809 175.27 173.849C179.382 176.906 182.659 180.946 184.802 185.599C184.857 185.721 184.69 185.833 184.619 185.706C184.28 185.097 183.925 184.503 183.552 183.924C181.846 183.604 180.231 182.4 178.982 181.258C178.947 181.227 178.982 181.177 179.033 181.207C179.686 181.805 180.413 182.317 181.196 182.73C181.892 183.086 182.638 183.309 183.364 183.594C182.73 182.578 182.07 181.624 181.384 180.689C179.526 179.994 177.782 179.025 176.21 177.815C176.201 177.807 176.194 177.797 176.192 177.785C176.19 177.773 176.193 177.761 176.199 177.751C176.205 177.74 176.214 177.732 176.226 177.728C176.237 177.724 176.249 177.725 176.261 177.729C177.804 178.658 179.396 179.506 181.029 180.268C179.985 178.893 178.861 177.58 177.662 176.338C177.078 176.033 176.489 175.723 175.931 175.398C175.885 175.373 175.931 175.291 175.966 175.312C176.434 175.474 176.881 175.693 177.296 175.962C176.611 175.276 175.915 174.606 175.194 173.946Z" fill="#263238"/>
<path d="M175.328 177.068C175.43 177.129 175.527 177.199 175.617 177.277C175.642 177.277 175.617 177.333 175.581 177.322C175.477 177.273 175.377 177.215 175.282 177.15C175.231 177.119 175.277 177.038 175.328 177.068Z" fill="#263238"/>
<path d="M199.203 212.766H178.699L180.355 194.094L180.72 189.976H197.182L197.548 194.094L199.203 212.766Z" fill="#455A64"/>
<path d="M197.547 194.094H180.354L180.719 189.976H197.181L197.547 194.094Z" fill="#263238"/>
<path d="M198.168 187.097H179.74V191.17H198.168V187.097Z" fill="#455A64"/>
<path d="M133.935 212.74H82.1052C81.6787 211.075 81.2674 209.435 80.851 207.815C80.3788 205.956 79.9116 204.143 79.4647 202.376C79.3683 201.985 79.2616 201.589 79.1652 201.203L78.1496 197.248C77.9516 196.466 77.7535 195.724 77.5656 194.937C77.3778 194.15 77.1696 193.414 76.9817 192.657C76.9258 192.459 76.8801 192.266 76.8294 192.073C76.7786 191.88 76.7227 191.647 76.6719 191.439C76.6212 191.231 76.5399 190.931 76.4739 190.667C76.4028 190.398 76.3368 190.134 76.2708 189.87C76.1388 189.362 76.0118 188.854 75.895 188.402L75.3619 186.32C75.2908 186.021 75.2146 185.726 75.1384 185.437C75.0166 184.964 74.8998 184.507 74.7881 184.05C74.7068 183.751 74.6357 183.456 74.5647 183.167C74.2532 181.979 73.9672 180.862 73.7065 179.816C73.6354 179.541 73.5694 179.272 73.4983 179.008C73.3866 178.556 73.2749 178.12 73.1683 177.703C73.0972 177.439 73.0312 177.195 72.9753 176.931C72.7417 176.038 72.5335 175.225 72.3558 174.509C72.305 174.321 72.2593 174.134 72.2085 173.956C72.0917 173.484 71.98 173.067 71.8886 172.691C71.848 172.539 71.8176 172.397 71.7769 172.265C71.7363 172.133 71.7058 171.975 71.6703 171.848C71.6347 171.722 71.6246 171.666 71.6094 171.59C71.5941 171.513 71.5433 171.336 71.5129 171.234C71.4824 171.133 71.4875 171.122 71.4773 171.077L71.3555 170.609H121.804C121.804 170.609 123.464 176.337 126.125 185.569C126.663 187.448 127.247 189.479 127.872 191.632C129.649 197.781 131.71 204.966 133.935 212.74Z" fill="#37474F"/>
<path d="M90.5894 212.74H89.2945C87.3785 204.805 85.5166 196.85 83.7089 188.874C83.2756 186.941 82.8474 185.002 82.4242 183.055C82.3836 182.872 82.343 182.695 82.3074 182.512C82.3021 182.492 82.3046 182.471 82.3146 182.454C82.3246 182.436 82.3412 182.423 82.3608 182.418C82.3803 182.412 82.4011 182.415 82.4188 182.425C82.4364 182.435 82.4493 182.452 82.4547 182.471C82.4547 182.532 82.4902 182.593 82.5105 182.649C83.0945 184.731 83.6784 186.823 84.2472 188.91C86.4442 196.835 88.5582 204.778 90.5894 212.74Z" fill="#263238"/>
<path d="M120.179 170.604L117.955 181.75L116.127 190.89L113.019 206.469L112.699 208.069L112.166 210.724L111.765 212.755H82.1001C81.6787 211.085 81.2572 209.44 80.851 207.83C80.3788 205.971 79.9116 204.159 79.4647 202.392C79.3683 202.001 79.2616 201.604 79.1652 201.219L78.1496 197.263C77.9516 196.481 77.7535 195.74 77.5656 194.953C77.3778 194.165 77.1696 193.429 76.9817 192.673C76.9258 192.475 76.8801 192.282 76.8294 192.089C76.7786 191.896 76.7227 191.662 76.6719 191.454C76.6212 191.246 76.5399 190.946 76.4739 190.682C76.4028 190.413 76.3368 190.149 76.2708 189.885C76.1388 189.377 76.0118 188.869 75.895 188.417L75.3619 186.335C75.2857 186.031 75.2146 185.741 75.1384 185.452C75.0166 184.98 74.8998 184.523 74.7881 184.066C74.7068 183.766 74.6357 183.472 74.5647 183.182C74.2532 181.994 73.9672 180.877 73.7065 179.831C73.6354 179.557 73.5694 179.287 73.4983 179.023C73.3866 178.571 73.2749 178.135 73.1683 177.718C73.0972 177.454 73.0312 177.211 72.9753 176.947C72.7417 176.053 72.5335 175.24 72.3558 174.524C72.305 174.337 72.2593 174.149 72.2085 173.971C72.0917 173.499 71.98 173.082 71.8886 172.707C71.848 172.554 71.8176 172.412 71.7769 172.28C71.7363 172.148 71.7058 171.991 71.6703 171.864C71.6347 171.737 71.6246 171.681 71.6094 171.605C71.5941 171.529 71.5433 171.351 71.5129 171.249C71.4824 171.148 71.4875 171.138 71.4773 171.092L71.3555 170.625L120.179 170.604Z" fill="#263238"/>
<path d="M120.183 170.584C120.183 170.858 119.975 173.869 119.487 178.46C119.35 179.795 119.188 181.268 118.979 182.847C118.685 185.335 118.319 188.077 117.862 190.971C117.09 196.049 116.08 201.559 114.765 206.956C114.298 208.901 113.785 210.826 113.241 212.71L46.783 212.735C46.783 212.735 45.9452 207.627 46.0619 206.134C46.6916 198.009 51.4292 170.589 51.4292 170.589H110.499L120.183 170.584Z" fill="#37474F"/>
<path d="M120.047 176.566C119.976 178.897 119.879 181.222 119.727 183.543C119.569 186.082 119.341 188.565 119.011 191.073C119.004 191.167 118.992 191.26 118.975 191.352C118.671 193.702 118.318 196.046 117.919 198.385C117.543 200.564 117.269 202.915 116.304 204.936C115.938 205.708 115.42 206.399 114.781 206.967C114.194 207.504 113.476 207.876 112.699 208.048C112.572 208.079 112.443 208.099 112.313 208.109C112.278 208.109 112.237 208.109 112.201 208.109C112.225 208.123 112.245 208.143 112.257 208.167C112.27 208.192 112.275 208.219 112.272 208.246C112.247 209.028 112.272 209.821 112.181 210.597C112.179 210.63 112.179 210.662 112.181 210.694C112.105 211.374 111.978 212.045 111.851 212.725H110.709C110.709 212.725 110.709 212.725 110.709 212.689C110.907 211.953 111.069 211.212 111.257 210.465C111.445 209.719 111.699 208.973 111.876 208.201C111.889 208.173 111.908 208.149 111.932 208.13C111.223 208.164 110.52 207.98 109.919 207.604C109.317 207.227 108.845 206.675 108.566 206.022C108.195 205.007 108.363 203.991 108.515 202.976C108.718 201.645 108.916 200.31 109.119 198.974C109.5 196.527 109.993 194.105 110.429 191.667C110.49 191.297 110.556 190.926 110.622 190.555C111.496 185.599 112.41 180.638 113.506 175.728C113.547 175.525 113.593 175.317 113.638 175.114C113.684 174.911 113.887 175.017 113.877 175.149C113.842 175.479 113.811 175.814 113.77 176.139C113.577 178.025 113.352 179.904 113.095 181.776C112.78 183.974 112.562 186.188 112.252 188.377C112.146 189.128 112.044 189.875 111.932 190.626C111.424 194.242 110.917 197.862 110.282 201.468C109.993 203.143 108.952 206.144 111.358 206.662C111.911 206.786 112.489 206.714 112.994 206.459C114.058 205.819 114.854 204.814 115.233 203.631C115.918 201.711 116.162 199.599 116.518 197.598C116.907 195.394 117.257 193.186 117.569 190.972C117.958 188.203 118.369 185.442 118.803 182.69C119.016 181.283 119.239 179.877 119.463 178.475C119.569 177.825 119.676 177.175 119.777 176.52C119.849 176.388 120.047 176.429 120.047 176.566Z" fill="#263238"/>
<path d="M62.4225 193.881C65.1344 193.852 67.8325 193.489 70.4556 192.8C71.6641 192.485 72.8625 192.099 74.0456 191.713C75.2229 191.386 76.3251 190.832 77.2903 190.083C79.1133 188.509 79.9663 186.021 80.7585 183.827C81.6282 181.337 82.3321 178.793 82.8658 176.21C82.8912 176.083 83.079 176.129 83.0841 176.246C83.1474 179.162 82.7778 182.071 81.9873 184.878C81.3323 187.26 80.464 189.915 78.5293 191.586C76.4982 193.343 73.7562 193.957 71.1665 194.277C68.2554 194.615 65.3128 194.574 62.4123 194.155C62.3825 194.146 62.3566 194.127 62.3386 194.102C62.3206 194.076 62.3114 194.045 62.3126 194.014C62.3138 193.983 62.3251 193.953 62.345 193.929C62.3648 193.905 62.3921 193.888 62.4225 193.881Z" fill="#263238"/>
<path d="M57.8983 176.291C57.7561 179.932 53.9833 198.954 53.704 202.59C53.5263 204.93 54.4301 212.745 54.4301 212.745H53.506C53.506 212.745 52.8052 205.789 52.9017 202.59C53.0033 198.944 57.2991 179.958 57.5834 176.317C57.5801 176.275 57.5934 176.234 57.6206 176.202C57.6477 176.17 57.6864 176.15 57.7282 176.147C57.7699 176.143 57.8113 176.157 57.8432 176.184C57.8751 176.211 57.8949 176.25 57.8983 176.291Z" fill="#263238"/>
<path d="M111.525 94.4627C136.563 117.029 159.764 141.737 161.587 154.381C164.126 171.844 153.361 176.688 148.552 176.723C135.446 176.855 111.636 123.746 103.359 103.471C95.311 83.7688 106.025 89.5067 111.525 94.4627Z" fill="#F7A9A0"/>
<path d="M149.299 130.591L121.462 145.723C121.462 145.723 104.152 113.733 100.166 98.931C96.18 84.1291 102.131 84.5404 115.232 96.0671C128.333 107.594 149.299 130.591 149.299 130.591Z" fill="#C7C7C7"/>
<path d="M149.299 130.591L121.462 145.723C121.462 145.723 104.152 113.733 100.166 98.931C96.18 84.1291 102.131 84.5404 115.232 96.0671C128.333 107.594 149.299 130.591 149.299 130.591Z" fill="#6B7280"/>
<path opacity="0.1" d="M100.182 98.9105C104.168 113.738 121.478 145.713 121.478 145.713L146.827 131.927L100.147 88.0491C98.5876 89.2424 98.5216 92.7664 100.182 98.9105Z" fill="black"/>
<path d="M143.587 126.31C132.853 133.572 122.449 138.289 120.367 139.513C120.265 139.569 120.184 139.401 120.29 139.35C122.393 138.279 133.818 131.17 143.501 126.148C143.613 126.072 143.714 126.239 143.587 126.31Z" fill="#263238"/>
<path d="M127.753 187.463L46.2188 187.691C46.2188 187.691 53.3277 126.351 83.2868 90.1211C90.2181 81.7326 101.374 86.2924 106.076 90.7406C117.999 102.049 127.972 187.163 127.753 187.463Z" fill="#6B7280"/>
<path d="M100.202 86.9878C96.7182 89.5267 93.3719 92.2382 89.9799 94.8635C88.2331 96.2142 86.527 97.6512 84.699 98.8851C83.2366 99.8702 81.5558 100.693 79.7532 100.591C78.5614 100.504 77.4267 100.046 76.5085 99.2812L76.6963 98.9918C77.0736 99.2984 77.4882 99.5561 77.9303 99.7585C79.7329 100.581 81.6878 100.175 83.3686 99.2507C85.222 98.2352 86.8571 96.788 88.5226 95.4982C90.3438 94.0798 92.1685 92.6631 93.9965 91.2481C95.8803 89.7907 97.7541 88.2014 99.7141 86.7847C99.8817 86.8507 100.044 86.9218 100.202 86.9878ZM88.1367 128.992C89.9393 126.412 90.8178 122.949 89.6905 119.923C88.6749 117.216 86.2528 115.434 83.5006 114.774C80.6375 114.104 77.6301 114.464 75.0054 115.789C71.5728 117.536 69.0796 120.618 65.9974 122.852C65.1283 123.486 64.1917 124.02 63.2046 124.447C63.1132 124.66 63.0268 124.873 62.9405 125.082C66.2614 123.822 68.7292 121.182 71.3849 118.922C72.7718 117.659 74.3481 116.62 76.0565 115.845C77.5083 115.256 79.0597 114.951 80.6266 114.946C83.6073 114.916 86.791 116.028 88.4972 118.607C90.4268 121.527 89.858 125.31 88.1011 128.164C83.6377 135.39 73.7664 134.933 66.3884 135.07C63.8539 135.082 61.3254 135.318 58.8326 135.775C58.7615 135.968 58.6904 136.161 58.6244 136.354C61.4599 135.832 64.338 135.577 67.2211 135.593C74.391 135.496 83.5108 135.608 88.1367 128.992ZM89.9393 110.711C96.3583 111.44 102.832 109.933 108.27 106.446C109.721 105.522 111.081 104.463 112.332 103.283L112.15 102.775C110.835 104.034 109.394 105.154 107.849 106.116C102.219 109.678 95.4833 111.067 88.9034 110.021C83.4803 109.097 78.6208 105.766 73.3602 104.293L73.0555 104.801C75.3358 105.509 77.5594 106.389 79.7075 107.431C83.003 108.888 86.334 110.28 89.9393 110.716V110.711ZM83.8916 160.179C86.0813 158.001 87.3934 155.093 87.5781 152.009C87.7355 149.186 86.8418 146.205 84.5974 144.362C82.023 142.265 78.504 142.168 75.4574 143.154C71.9435 144.291 69.2167 146.708 66.8251 149.465C64.2252 152.456 61.9554 155.858 58.7919 158.306C56.6491 159.966 53.9376 161.352 51.1752 161.505C51.1346 161.662 51.094 161.83 51.0584 162.013C52.4692 161.93 53.8553 161.605 55.1562 161.053C58.6244 159.596 61.2496 156.991 63.626 154.142C66.1294 151.161 68.4652 147.815 71.7252 145.586C74.5738 143.641 78.3771 142.366 81.7945 143.448C84.9732 144.464 86.8164 147.399 87.0297 150.633C87.1239 152.234 86.8921 153.837 86.3483 155.345C85.8045 156.853 84.9601 158.235 83.8662 159.408C81.3273 162.17 77.8947 163.886 74.4266 165.166C70.3888 166.61 66.2664 167.806 62.0824 168.746C57.6342 169.787 52.2822 170.696 48.55 173.539C48.4941 173.813 48.4434 174.077 48.3926 174.347C52.1248 171.219 57.8475 170.284 62.4734 169.198C66.6473 168.268 70.7583 167.076 74.782 165.628C78.1029 164.369 81.3781 162.734 83.8916 160.185V160.179ZM78.6564 173.666C75.0714 173.428 72.0095 175.697 69.9835 178.434C67.8762 181.303 66.6321 184.68 64.6822 187.635H65.2713C66.0634 186.391 66.7489 185.066 67.4141 183.791C69.1355 180.45 71.0295 176.713 74.5687 174.986C76.2391 174.12 78.1709 173.903 79.9918 174.377C80.8051 174.643 81.551 175.082 82.1779 175.664C82.8048 176.246 83.2977 176.957 83.6225 177.749C84.9833 180.841 84.4654 184.289 84.6381 187.564H85.1458C84.9935 184.888 85.2677 182.187 84.6838 179.536C84.0236 176.484 81.9773 173.895 78.6564 173.671V173.666ZM115.623 185.431C114.404 182.116 114.394 178.51 114.562 175.032C114.968 166.303 116.684 157.488 115.313 148.77C114.267 142.087 111.393 135.308 105.731 131.266C102.857 129.235 98.9118 127.895 95.6366 129.845C92.859 131.485 91.4068 134.801 91.3662 137.939C91.3255 142.001 93.2145 145.789 95.1999 149.216C97.1853 152.644 99.4145 155.818 101.4 159.194C103.385 162.571 105.066 166.06 105.807 169.858C106.483 173.406 106.366 177.059 105.467 180.557C104.86 183.013 103.888 185.365 102.583 187.534H103.177C103.446 187.082 103.685 186.615 103.934 186.153C105.533 183.037 106.474 179.627 106.698 176.133C106.923 172.638 106.426 169.135 105.239 165.841C102.558 158.458 97.1701 152.537 93.8441 145.484C92.1431 141.884 91.0412 137.593 92.8286 133.805C93.5157 132.234 94.6933 130.929 96.185 130.083C97.0747 129.653 98.0421 129.408 99.029 129.362C100.016 129.316 101.002 129.469 101.928 129.814C105.442 130.962 108.367 133.795 110.383 136.811C112.305 139.787 113.656 143.095 114.369 146.566C116.237 155.041 114.765 163.754 114.16 172.28C113.896 175.961 113.653 179.724 114.455 183.365C114.746 184.81 115.259 186.201 115.978 187.488H116.628C116.22 186.841 115.882 186.151 115.623 185.431ZM106.777 122.553C108.478 126.011 111.931 127.885 115.359 129.291C116.628 129.799 117.898 130.307 119.167 130.814C119.137 130.637 119.096 130.464 119.066 130.307C117.075 129.464 115.044 128.707 113.104 127.732C109.794 126.072 106.376 123.076 106.422 119.049C106.468 115.352 109.87 112.732 113.236 112.062C113.774 111.957 114.319 111.891 114.866 111.864C114.826 111.717 114.785 111.57 114.75 111.422C112.445 111.51 110.236 112.366 108.473 113.855C107.247 114.898 106.412 116.327 106.104 117.907C105.796 119.487 106.033 121.125 106.777 122.553Z" fill="white"/>
<path d="M77.5495 92.8579C53.8107 111.082 29.0563 142.021 28.6856 159.885C28.32 177.525 38.2269 175.769 39.8975 175.251C57.5378 169.756 78.7986 120.827 86.6642 100.896C94.4586 81.1129 83.4195 88.3488 77.5495 92.8579Z" fill="#F7A9A0"/>
<path d="M39.4102 128.408L66.9726 144.037C66.9726 144.037 84.8516 112.382 89.1017 97.6363C93.3518 82.8904 87.3905 83.2103 74.0866 94.5033C60.7827 105.796 39.4102 128.408 39.4102 128.408Z" fill="#6B7280"/>
<path d="M45.204 124.249C55.8065 131.698 66.1246 136.604 68.1862 137.843C68.2827 137.904 68.369 137.736 68.2675 137.685C66.1805 136.573 54.8823 129.261 45.2903 124.072C45.204 123.99 45.1126 124.173 45.204 124.249Z" fill="#263238"/>
<path d="M65.1997 142.961C65.7667 143.176 66.3211 143.424 66.8602 143.702C69.5108 138.436 69.0284 139.64 71.7247 134.399C73.0517 131.83 74.3736 129.261 75.6905 126.691C77.0615 124.02 78.2903 121.233 79.8035 118.638C79.8116 118.622 79.8258 118.609 79.8429 118.604C79.8601 118.598 79.8788 118.599 79.8949 118.607C79.9111 118.615 79.9234 118.63 79.9291 118.647C79.9348 118.664 79.9335 118.683 79.9254 118.699C79.0469 121.238 77.8587 123.685 76.7314 126.128C76.9803 125.747 77.2392 125.361 77.488 124.995C78.0974 124.178 78.6915 123.36 79.2348 122.497C79.3161 122.36 79.5395 122.472 79.4531 122.604C78.9454 123.426 78.4833 124.274 78.0314 125.143C77.5794 126.011 77.0767 126.828 76.5639 127.681C76.051 128.535 75.5483 129.24 74.9745 130.002L74.7765 130.281C74.0554 131.805 73.3547 133.328 72.5981 134.851C69.9475 140.148 67.2156 144.311 67.1242 144.286C66.4302 143.952 65.763 143.565 65.1286 143.128C65.0474 143.057 65.1235 142.956 65.1997 142.961Z" fill="#263238"/>
<path d="M147.34 176.093C139.17 174.895 134.544 159.712 125.47 135.547C123.881 131.302 144.979 107.02 147.843 110.925C151.453 115.845 161.015 143.133 161.969 150.532C163.848 165.171 156.882 177.485 147.34 176.093Z" fill="#F7A9A0"/>
<path d="M134.771 160.002C132.908 156.052 131.242 152.015 129.612 147.968C128.089 143.88 126.362 139.843 125.469 135.547C126.748 139.711 128.515 143.712 130.084 147.78C131.481 151.365 133.487 156.412 134.771 160.002Z" fill="#263238"/>
<path d="M155.392 128.448C154.25 120.151 151.909 108.579 148.943 106.157C145.831 103.618 134.532 95.1074 131.267 93.97C128.002 92.8326 113.459 87.3028 110.789 88.8516C108.651 90.0855 111.18 95.7117 118.106 98.4131C124.199 100.779 127.322 102.983 129.059 103.745C130.795 104.506 135.121 110.28 133.959 112.819C133.268 114.317 128.911 116.074 126.2 114.85C123.488 113.626 122.818 108.249 119.72 105.71C116.623 103.171 111.159 103.486 110.844 104.958C110.53 106.431 112.332 107.127 115.125 112.138C116.923 115.363 117.044 123.101 121.122 128.652C123.153 131.439 126.738 138.858 126.738 138.858L155.392 128.448Z" fill="#F7A9A0"/>
<path d="M116.831 103.425C115.829 103.279 114.889 102.853 114.119 102.196C113.877 101.969 113.694 101.687 113.583 101.374C113.473 101.062 113.439 100.727 113.484 100.398C113.49 100.151 113.586 99.9148 113.754 99.7332C113.804 99.6977 113.723 99.6266 113.698 99.6824C113.622 99.7978 113.539 99.9081 113.449 100.012C113.383 100.11 113.331 100.216 113.291 100.327C113.207 100.542 113.167 100.772 113.175 101.003C113.192 101.509 113.382 101.995 113.713 102.379C114.485 103.303 115.678 103.547 116.826 103.506C116.831 103.506 116.836 103.506 116.841 103.504C116.846 103.502 116.851 103.499 116.855 103.496C116.859 103.492 116.862 103.488 116.865 103.483C116.867 103.478 116.868 103.473 116.869 103.468C116.869 103.463 116.868 103.457 116.867 103.452C116.865 103.447 116.862 103.442 116.859 103.438C116.855 103.434 116.851 103.431 116.846 103.429C116.841 103.426 116.836 103.425 116.831 103.425Z" fill="#263238"/>
<path d="M148.965 106.157C146.329 102.013 139.586 94.5487 132.903 91.9794C128.389 90.2427 112.841 97.8036 113.293 100.774C113.745 103.745 116.4 103.76 120.331 103.313C121.763 103.145 129.339 100.429 130.629 102.018C132.482 104.303 134.838 112.113 134.838 112.113L148.965 106.157Z" fill="#F7A9A0"/>
<path d="M113.677 99.6164C115.602 96.4377 119.822 94.7417 124.021 93.4063C124.087 93.3809 124.122 93.4824 124.062 93.5027C122.99 93.843 116.145 96.9912 113.723 99.6672C113.698 99.6977 113.657 99.6469 113.677 99.6164Z" fill="#263238"/>
<path d="M148.964 106.157C146.329 102.013 139.586 94.5489 132.903 91.9795C128.389 90.2429 116.086 99.9212 116.538 102.892C116.989 105.862 120.803 106.106 125.023 104.639C126.383 104.166 130.953 100.952 132.243 102.541C134.097 104.826 138.621 110.503 138.621 110.503L148.964 106.157Z" fill="#F7A9A0"/>
<path d="M136.01 106.989C135.589 106.334 135.447 106.106 134.995 105.466C134.543 104.826 134.116 104.181 133.639 103.572C133.263 103.006 132.793 102.51 132.248 102.104C131.683 101.783 131.029 101.653 130.384 101.734C128.922 101.871 127.596 102.795 126.357 103.506C124.971 104.303 122.102 105.588 119.898 105.354C119.295 105.319 118.705 105.158 118.167 104.882C117.755 104.697 117.397 104.411 117.126 104.049C116.171 102.435 117.365 100.586 118.588 99.2812C120.858 96.8439 123.915 95.0768 126.875 93.6245C127.607 93.2691 128.343 92.934 129.079 92.609C129.904 92.1692 130.812 91.9096 131.745 91.8473C133.268 91.8473 135.777 93.3706 136.554 93.8784C136.615 93.914 136.655 93.8175 136.599 93.7819C135.66 93.198 133.334 91.2887 130.867 91.4106C129.968 91.5455 129.1 91.8377 128.302 92.2738C127.442 92.6428 126.596 93.0389 125.763 93.4621C124.125 94.262 122.553 95.1908 121.061 96.2396C119.655 97.2552 118.162 98.4078 117.212 99.8703C116.39 101.135 116.141 102.917 116.943 104.268C117.613 105.39 119.05 105.659 119.711 105.745C120.356 105.834 121.01 105.834 121.655 105.745C123.093 105.438 124.507 105.027 125.885 104.516C127.221 104.009 128.424 103.085 129.805 102.668C130.13 102.556 130.474 102.51 130.816 102.532C131.159 102.555 131.494 102.646 131.801 102.8C132.361 103.178 132.862 103.637 133.289 104.161C134.207 105.068 135.04 106.057 135.777 107.116C135.985 107.355 136.188 107.258 136.01 106.989Z" fill="#263238"/>
<path d="M150.919 109.772C149.949 107.802 148.324 99.6875 146.76 97.1943C145.196 94.7011 138.047 86.0942 134.706 86.4649C130.506 86.9269 134.873 94.498 137.072 97.6361C139.271 100.774 138.895 106.045 138.895 106.045L150.919 109.772Z" fill="#F7A9A0"/>
<path d="M134.009 92.4415C134.778 93.4507 135.495 94.4981 136.157 95.5796C136.859 96.5624 137.487 97.5961 138.036 98.672C138.496 99.772 138.77 100.94 138.849 102.13C138.904 102.714 138.925 103.293 138.925 103.882C138.925 104.471 138.874 105.167 138.889 105.806C138.889 105.872 138.783 105.883 138.783 105.806C138.706 104.637 138.555 103.473 138.331 102.323C138.121 101.129 137.768 99.9645 137.28 98.8548C136.3 96.6561 134.863 94.6961 133.867 92.5075C133.827 92.4263 133.954 92.3704 134.009 92.4415Z" fill="#263238"/>
<path d="M138.839 106.908C138.941 109.914 137.575 112.788 136.113 115.343C135.097 117.054 133.711 118.491 132.69 120.192C131.16 122.725 130.241 125.58 130.004 128.53C130.007 124.497 131.416 120.591 133.99 117.485C135.223 115.957 136.271 114.288 137.113 112.514C137.946 110.747 138.728 108.889 138.829 106.929L138.839 106.908Z" fill="#263238"/>
<path d="M108.87 95.3156C108.753 96.6088 108.57 97.8951 108.322 99.1697C108.129 100.325 107.83 101.461 107.428 102.562C106.646 104.542 105.148 106.37 102.858 106.903C101.785 107.108 100.683 107.095 99.6156 106.867C98.5481 106.638 97.5373 106.198 96.6426 105.573C94.7333 104.313 93.2404 102.526 91.8745 100.789C91.0265 99.713 90.2242 98.6111 89.4828 97.4686C89.1071 96.8948 88.7263 96.3159 88.3759 95.7218C88.0255 95.1277 87.7107 94.5235 87.3299 93.9547C87.2994 93.909 87.1978 93.9547 87.2283 93.9903C87.9697 95.341 90.2039 99.6114 90.9503 100.673C92.3112 102.597 93.799 104.567 95.7793 105.989C97.6718 107.433 100.053 108.081 102.416 107.797C103.552 107.617 104.623 107.15 105.527 106.438C106.431 105.727 107.138 104.796 107.58 103.735C108.102 102.472 108.434 101.139 108.565 99.779C108.753 98.2912 108.855 96.7882 108.916 95.2902C108.9 95.3004 108.875 95.3004 108.87 95.3156Z" fill="#263238"/>
<path d="M100.978 103.171C95.9506 103.029 89.7505 93.6604 88.0952 86.9577C87.9885 86.5007 93.9144 70.9016 94.7674 67.6874C94.9401 67.0272 113.647 77.9395 113.647 77.9395C113.647 77.9395 109.874 84.1497 108.422 89.7556C108.305 90.2278 105.837 103.298 100.978 103.171Z" fill="#F7A9A0"/>
<path d="M113.643 77.9342C113.643 77.9342 109.875 84.1443 108.418 89.7553C108.392 89.867 108.235 90.6846 107.946 91.8626C98.5922 88.4452 94.0526 80.9301 91.9707 75.8523C93.2452 72.2978 94.4233 68.9921 94.7635 67.6922C94.9666 67.027 113.643 77.9342 113.643 77.9342Z" fill="#263238"/>
<path d="M88.6695 59.5013C88.6695 59.5013 87.3949 64.2593 86.4657 65.7521C85.5365 67.245 81.332 67.7833 81.332 67.7833C81.332 67.7833 85.0388 70.571 86.3134 70.6624C87.5879 70.7538 90.4569 68.3164 90.4569 68.3164C90.4569 68.3164 87.1664 72.6275 85.3791 72.3482C84.2772 72.1756 87.918 73.3638 87.918 73.3638C89.1483 73.6601 90.4447 73.4919 91.5588 72.8916C93.2243 71.9014 88.6695 59.5013 88.6695 59.5013Z" fill="#263238"/>
<path d="M95.6117 45.2838C91.4834 51.819 89.6097 73.4454 93.4333 79.4271C98.9732 88.1 110.85 92.0353 118.934 84.7436C126.774 77.6803 128.709 49.4527 124.179 43.7249C117.507 35.311 101.715 35.636 95.6117 45.2838Z" fill="#F7A9A0"/>
<path d="M111.551 59.9433C110.91 60.0025 110.266 60.0262 109.622 60.0144C108.88 60.0144 108.291 60.1312 107.636 59.7199C107.466 59.5811 107.345 59.3908 107.292 59.1774C107.239 58.9641 107.256 58.7393 107.342 58.5368C107.768 57.6989 108.672 57.4501 109.566 57.3841C110.469 57.2888 111.375 57.5351 112.105 58.0747C112.851 58.6129 112.42 59.8265 111.551 59.9433Z" fill="#263238"/>
<path d="M110.47 64.6152C110.47 64.5593 110.348 64.6659 110.343 64.7269C110.165 66.1791 109.718 67.8193 108.312 68.0985C108.271 68.0985 108.266 68.1798 108.312 68.1798C109.967 68.2001 110.536 66.0217 110.47 64.6152Z" fill="#263238"/>
<path d="M109.408 62.9038C107.108 62.396 106.209 67.0118 108.342 67.5094C110.474 68.007 111.337 63.3557 109.408 62.9038Z" fill="#263238"/>
<path d="M118.787 66.0163C118.787 65.9655 118.883 66.1077 118.873 66.1635C118.548 67.5955 118.416 69.2864 119.625 70.0125C119.665 70.0379 119.625 70.109 119.599 70.0938C118.056 69.5606 118.249 67.3162 118.787 66.0163Z" fill="#263238"/>
<path d="M120.355 64.7624C122.701 65.0366 121.985 69.7082 119.812 69.4543C117.639 69.2004 118.395 64.5339 120.355 64.7624Z" fill="#263238"/>
<path d="M122.62 62.3809C122.019 62.1304 121.432 61.8473 120.863 61.5329C120.192 61.2079 119.629 61.0251 119.238 60.3396C119.152 60.1376 119.133 59.9131 119.185 59.6998C119.238 59.4865 119.357 59.2959 119.527 59.1565C120.299 58.6081 121.218 58.8061 122.036 59.1565C122.876 59.4923 123.56 60.1297 123.955 60.9439C124.04 61.1348 124.067 61.3465 124.033 61.5527C123.998 61.7589 123.904 61.9504 123.762 62.1035C123.62 62.2566 123.436 62.3646 123.232 62.4139C123.029 62.4632 122.816 62.4517 122.62 62.3809Z" fill="#263238"/>
<path d="M106.869 76.3094C107.149 76.7106 107.402 77.2387 107.915 77.3859C108.452 77.4774 109.002 77.4566 109.53 77.325C109.541 77.3227 109.552 77.324 109.562 77.3286C109.572 77.3333 109.58 77.3411 109.585 77.3509C109.591 77.3607 109.592 77.3718 109.591 77.3827C109.589 77.3936 109.584 77.4037 109.576 77.4113C109.315 77.6537 108.994 77.8212 108.647 77.8963C108.299 77.9714 107.938 77.9512 107.6 77.8378C107.323 77.7034 107.091 77.4901 106.934 77.2246C106.776 76.9591 106.701 76.6531 106.717 76.345C106.712 76.2586 106.829 76.2586 106.869 76.3094Z" fill="#263238"/>
<path d="M109.215 72.2977C109.468 72.9375 109.852 73.5176 110.341 74.0011C110.831 74.4845 111.416 74.8608 112.059 75.1058C112.617 75.3305 113.206 75.4725 113.806 75.5272C113.918 75.5481 114.032 75.5566 114.146 75.5526C114.252 75.5526 114.354 75.5526 114.471 75.5526C114.55 75.5524 114.627 75.5266 114.69 75.479C114.753 75.4314 114.799 75.3646 114.821 75.2886C114.824 75.2395 114.824 75.1904 114.821 75.1413V75.0144C115.065 73.9125 115.283 72.2114 115.283 72.2114C115.649 72.4907 117.533 73.816 117.614 73.227C118.254 68.3827 118.965 63.0003 118.584 58.0443C118.578 58.0131 118.561 57.985 118.536 57.9647C118.512 57.9445 118.481 57.9335 118.449 57.9335C118.417 57.9335 118.387 57.9445 118.362 57.9647C118.338 57.985 118.321 58.0131 118.315 58.0443C117.512 62.6702 117.533 67.4078 116.791 72.0743C116.182 71.6935 115.197 71.0232 114.618 70.9267C114.45 70.9267 114.252 74.2273 114.11 74.7097C114.112 74.7266 114.112 74.7436 114.11 74.7605C112.201 74.6386 110.911 73.8059 109.347 72.2216C109.281 72.0896 109.149 72.1657 109.215 72.2977Z" fill="#263238"/>
<path d="M91.0268 62.3048C94.9113 62.4876 100.705 51.2199 100.705 51.2199L99.1818 57.9734C99.1818 57.9734 102.65 56.6938 104.915 54.1955C106.529 52.4183 107.23 49.397 107.377 47.8483C107.377 47.8483 109.916 53.2815 114.029 55.9728C115.553 56.9883 127.826 61.0506 128.08 60.2838C128.846 58.0191 126.744 48.2748 124.373 45.1367C121.636 41.5264 117.355 37.4743 109.084 37.8145C100.812 38.1547 97.3081 42.2119 94.9977 45.4972C92.6872 48.7826 89.5999 62.2388 91.0268 62.3048Z" fill="#263238"/>
<path d="M95.4739 64.4222C95.4739 64.4222 92.544 56.516 89.0758 57.3894C85.6077 58.2628 86.5826 68.8653 89.7969 71.0995C90.1897 71.4171 90.6426 71.652 91.1285 71.7903C91.6143 71.9286 92.1231 71.9674 92.6242 71.9043C93.1254 71.8412 93.6087 71.6776 94.0452 71.4233C94.4816 71.169 94.8622 70.8291 95.1641 70.4242L95.4739 64.4222Z" fill="#F7A9A0"/>
<path d="M89.4315 60.4205C89.3757 60.4205 89.3452 60.4815 89.3858 60.5119C91.6201 62.1775 92.331 64.8332 92.6255 67.4736C92.1177 66.3565 91.2443 65.5847 89.7718 66.1432C89.6956 66.1737 89.7311 66.2956 89.8073 66.2956C90.2831 66.2717 90.7546 66.3956 91.1573 66.6501C91.56 66.9046 91.8742 67.2774 92.0568 67.7174C92.3547 68.4557 92.5742 69.2233 92.7118 70.0075C92.7677 70.2613 93.2196 70.2461 93.1891 69.9668C93.1864 69.9449 93.1864 69.9227 93.1891 69.9008C94.0778 66.7373 92.7677 61.6392 89.4315 60.4205Z" fill="#263238"/>
<path d="M118.872 39.7693C116.772 37.7828 114.392 36.1147 111.809 34.8184C108.904 33.422 99.0835 30.9694 96.1435 32.1221C93.2034 33.2747 89.5931 42.0949 89.0904 43.3948C88.5876 44.6948 86.521 52.865 88.7654 55.7542C91.0098 58.6435 95.8083 45.1822 101.871 42.2371C107.934 39.292 118.872 39.7693 118.872 39.7693Z" fill="#6B7280"/>
<path opacity="0.1" d="M118.874 39.7744C118.874 39.7744 107.931 39.2361 101.873 42.2117C95.8153 45.1873 91.0168 58.6436 88.7623 55.7543C87.7772 54.4848 87.5791 53.0173 87.7467 50.7222C89.6712 46.9646 93.3323 41.3536 98.0445 38.2003C102.462 35.245 108.454 35.0063 114.365 36.2605C115.963 37.3034 117.472 38.4788 118.874 39.7744Z" fill="black"/>
<path d="M86.873 64.072C88.3354 60.548 95.2311 52.1036 100.933 47.8484C106.636 43.5932 119.036 44.1314 120.59 44.7509C124.357 46.2743 125.277 47.8535 125.998 47.7113C126.719 47.5691 123.728 43.3647 122.859 42.3542C121.991 41.3437 119.594 38.8505 117.914 38.3325C116.233 37.8146 105.585 35.4026 100.375 38.5458C95.165 41.689 85.7559 52.2559 85.6797 55.7139C85.6797 56.5467 86.5023 57.3693 86.4667 58.5473C86.416 60.0961 86.1672 61.8225 86.2636 62.9498C86.3347 63.8486 86.746 64.3716 86.873 64.072Z" fill="#6B7280"/>
<path d="M102.65 45.6442C101.946 44.8127 101.314 43.9226 100.761 42.9835C100.188 42.0413 99.7263 41.036 99.3849 39.9875C99.3832 39.9795 99.38 39.9719 99.3754 39.9652C99.3708 39.9584 99.3649 39.9526 99.3581 39.9482C99.3512 39.9437 99.3436 39.9406 99.3356 39.9391C99.3275 39.9376 99.3193 39.9376 99.3113 39.9393C99.3033 39.941 99.2957 39.9442 99.2889 39.9488C99.2822 39.9534 99.2764 39.9593 99.2719 39.9661C99.2674 39.973 99.2643 39.9806 99.2628 39.9886C99.2613 39.9967 99.2614 40.0049 99.263 40.0129C99.4528 41.1342 99.8214 42.2177 100.355 43.2221C100.904 44.2082 101.632 45.083 102.503 45.8016C102.584 45.8829 102.726 45.7407 102.65 45.6442Z" fill="#263238"/>
<path d="M88.0402 60.4461C88.006 60.151 87.9568 59.8578 87.8929 59.5676C87.843 59.2315 87.8294 58.891 87.8523 58.5521C87.9823 57.9311 88.0419 57.2974 88.03 56.6631C87.9346 56.1543 87.7848 55.6572 87.5832 55.1804C87.3124 54.655 87.2334 54.0516 87.3598 53.4742C87.3624 53.4666 87.3636 53.4584 87.3631 53.4503C87.3626 53.4422 87.3606 53.4343 87.357 53.427C87.3535 53.4197 87.3485 53.4131 87.3425 53.4077C87.3364 53.4023 87.3293 53.3982 87.3217 53.3955C87.314 53.3929 87.3059 53.3917 87.2978 53.3922C87.2897 53.3927 87.2817 53.3947 87.2744 53.3983C87.2671 53.4018 87.2606 53.4067 87.2552 53.4128C87.2498 53.4189 87.2456 53.4259 87.243 53.4336C86.8723 54.5304 87.3496 55.5511 87.5222 56.6326C87.634 57.3232 87.3953 57.9833 87.3902 58.6638C87.334 59.3164 87.4985 59.9691 87.8574 60.5172C87.898 60.5781 88.0453 60.5476 88.0402 60.4461Z" fill="#263238"/>
<path d="M90.5899 56.963C90.3609 56.4528 90.1592 55.9307 89.9856 55.399C89.8423 54.8702 89.7337 54.3325 89.6607 53.7894C89.5845 53.2511 89.554 52.7129 89.488 52.1797C89.4119 51.545 89.2595 50.9153 89.2138 50.2806C89.2138 50.1994 89.0869 50.2248 89.0919 50.2806C89.1376 50.9407 89.0919 51.6059 89.0919 52.266C89.1183 52.8384 89.1828 53.4084 89.2849 53.9722C89.3751 54.5124 89.5163 55.0428 89.7064 55.5565C89.88 56.0792 90.1581 56.5613 90.5239 56.9732C90.5274 56.9796 90.5328 56.9847 90.5393 56.9879C90.5459 56.9912 90.5532 56.9923 90.5604 56.9912C90.5677 56.9901 90.5744 56.9868 90.5796 56.9817C90.5849 56.9767 90.5885 56.9702 90.5899 56.963Z" fill="#263238"/>
<path d="M93.0764 53.8656C92.5314 52.9719 92.1191 52.0038 91.8526 50.9915C91.5988 49.9759 91.4058 48.9908 91.2179 47.9905C91.2179 47.9194 91.091 47.9245 91.0961 47.9905C91.076 49.0529 91.1869 50.1137 91.4261 51.1489C91.5492 51.6504 91.7298 52.136 91.9644 52.5961C92.2507 53.0786 92.5914 53.5267 92.9799 53.9316C93.0155 53.9874 93.117 53.9163 93.0764 53.8656Z" fill="#263238"/>
<path d="M95.6362 50.9606C95.3442 50.577 95.1287 50.1408 95.0015 49.6759C94.8237 49.1681 94.6562 48.6603 94.4937 48.1525C94.3312 47.6447 94.1941 47.137 94.0519 46.6647C93.8765 46.1771 93.8056 45.6581 93.8437 45.1414C93.8428 45.1275 93.8374 45.1142 93.8285 45.1035C93.8195 45.0928 93.8074 45.0852 93.7939 45.0818C93.7803 45.0784 93.7661 45.0794 93.7531 45.0846C93.7402 45.0899 93.7292 45.0991 93.7218 45.1109C93.5993 45.6199 93.5803 46.1483 93.666 46.6647C93.7332 47.2354 93.8487 47.7994 94.0113 48.3506C94.1768 48.8919 94.3752 49.4227 94.6054 49.9399C94.7742 50.4184 95.0885 50.8321 95.5042 51.123C95.6006 51.1383 95.7073 51.0418 95.6362 50.9606Z" fill="#263238"/>
<path d="M98.0995 47.0203C97.871 46.5786 97.6527 46.1368 97.4597 45.6798C97.2667 45.2228 97.1043 44.7607 96.9519 44.2986C96.7996 43.8366 96.6015 43.3186 96.4441 42.8261C96.4441 42.8099 96.4377 42.7944 96.4263 42.783C96.4149 42.7716 96.3994 42.7651 96.3832 42.7651C96.367 42.7651 96.3515 42.7716 96.3401 42.783C96.3287 42.7944 96.3223 42.8099 96.3223 42.8261C96.3559 43.3393 96.4323 43.8489 96.5508 44.3494C96.6763 44.8462 96.8376 45.3332 97.0332 45.8067C97.2171 46.2777 97.4325 46.7358 97.678 47.1778C97.8982 47.6355 98.2032 48.0473 98.5768 48.3914C98.5917 48.4017 98.6093 48.4074 98.6274 48.4078C98.6455 48.4081 98.6633 48.4031 98.6785 48.3933C98.6937 48.3835 98.7057 48.3694 98.7129 48.3528C98.7201 48.3362 98.7222 48.3178 98.719 48.3C98.5519 47.8554 98.3446 47.4271 98.0995 47.0203Z" fill="#263238"/>
<path d="M106.101 44.5171C105.893 43.9534 105.69 43.405 105.431 42.8668C105.163 42.3173 104.865 41.7833 104.537 41.2673C103.92 40.2485 103.191 39.3016 102.364 38.444C102.318 38.3983 102.217 38.444 102.257 38.51C103.481 40.5411 104.796 42.5266 105.985 44.5729C105.994 44.5851 106.007 44.5938 106.022 44.5974C106.036 44.6011 106.052 44.5994 106.066 44.5929C106.08 44.5863 106.091 44.5751 106.097 44.5613C106.104 44.5475 106.105 44.5319 106.101 44.5171Z" fill="#263238"/>
<path d="M109.317 42.1558C109.096 41.6018 108.815 41.0739 108.479 40.5817C107.735 39.575 106.884 38.6522 105.94 37.8295C105.879 37.7788 105.788 37.8295 105.844 37.9108C106.57 38.8451 107.316 39.7693 107.991 40.7442C108.33 41.2229 108.641 41.7195 108.926 42.232C109.205 42.7398 109.368 43.3136 109.621 43.8366C109.626 43.8452 109.632 43.8524 109.64 43.8575C109.648 43.8626 109.658 43.8652 109.667 43.8652C109.677 43.8652 109.686 43.8626 109.694 43.8575C109.702 43.8524 109.709 43.8452 109.713 43.8366C109.692 43.2558 109.557 42.6848 109.317 42.1558Z" fill="#263238"/>
<path d="M112.794 41.7295C112.598 41.1976 112.348 40.6872 112.048 40.2062C111.481 39.2854 110.766 38.4652 109.93 37.779C109.875 37.7333 109.798 37.8196 109.844 37.8755C110.546 38.6964 111.177 39.5765 111.728 40.5058C112.007 40.9729 112.261 41.4553 112.515 41.9327C112.769 42.41 112.942 42.9482 113.246 43.3951C113.272 43.4357 113.322 43.3951 113.317 43.3646C113.197 42.8036 113.022 42.2559 112.794 41.7295Z" fill="#263238"/>
<path d="M115.568 40.6682C115.294 40.2315 114.994 39.8151 114.694 39.3937C114.416 38.9692 114.074 38.5906 113.679 38.2715C113.618 38.2258 113.557 38.307 113.593 38.3629C114.136 39.1956 114.664 40.0436 115.187 40.9018C115.615 41.7094 115.956 42.5605 116.203 43.4407C116.206 43.4482 116.212 43.4544 116.219 43.4588C116.227 43.4631 116.235 43.4655 116.243 43.4655C116.252 43.4655 116.26 43.4631 116.267 43.4588C116.274 43.4544 116.28 43.4482 116.284 43.4407C116.33 42.4655 116.08 41.4992 115.568 40.6682Z" fill="#263238"/>
<path d="M118.472 40.988C117.987 40.1056 117.339 39.3233 116.563 38.6826C116.512 38.6369 116.426 38.7283 116.476 38.774C117.14 39.4814 117.695 40.2841 118.122 41.1555C118.559 42.023 118.899 42.9356 119.137 43.8772C119.137 43.9179 119.223 43.9229 119.223 43.8772C119.2 42.869 118.943 41.8799 118.472 40.988Z" fill="#263238"/>
<path d="M121.484 43.7908C121.457 43.5697 121.415 43.3509 121.357 43.1357C121.243 42.7034 121.083 42.2846 120.88 41.8866C120.449 41.0841 119.939 40.3271 119.356 39.6269C119.311 39.5609 119.209 39.6269 119.26 39.7082C119.808 40.4029 120.271 41.1617 120.636 41.9678C120.818 42.3622 120.971 42.7696 121.093 43.1865C121.154 43.3896 121.2 43.5978 121.24 43.806C121.263 44.0131 121.308 44.2173 121.372 44.4153C121.376 44.4279 121.384 44.4389 121.394 44.4468C121.405 44.4546 121.418 44.4589 121.431 44.4589C121.444 44.4589 121.457 44.4546 121.467 44.4468C121.478 44.4389 121.485 44.4279 121.489 44.4153C121.524 44.2084 121.522 43.9971 121.484 43.7908Z" fill="#263238"/>
<path d="M123.591 44.7098C123.481 44.3636 123.35 44.0245 123.2 43.6942C123.05 43.3595 122.88 43.034 122.692 42.7193C122.494 42.3994 122.286 42.0845 122.103 41.7545C122.099 41.7451 122.094 41.7365 122.087 41.7295C122.079 41.7225 122.071 41.7173 122.061 41.7141C122.052 41.711 122.042 41.7101 122.032 41.7114C122.022 41.7128 122.012 41.7163 122.004 41.7219C121.996 41.7275 121.989 41.7348 121.984 41.7435C121.979 41.7521 121.976 41.7618 121.975 41.7718C121.974 41.7818 121.976 41.7918 121.979 41.8011C121.983 41.8105 121.989 41.8188 121.996 41.8256C122.196 42.1481 122.366 42.488 122.504 42.8411C122.641 43.1712 122.788 43.4962 122.93 43.8211C123.073 44.1461 123.21 44.4762 123.347 44.8062C123.484 45.1363 123.591 45.5019 123.763 45.8218C123.768 45.8335 123.777 45.843 123.789 45.8484C123.8 45.8538 123.813 45.8546 123.825 45.8508C123.838 45.847 123.848 45.8388 123.854 45.8277C123.86 45.8167 123.862 45.8037 123.86 45.7913C123.813 45.4214 123.723 45.0584 123.591 44.7098Z" fill="#263238"/>
<path d="M112.738 106.868L100.5 142.737C100.023 143.778 100.5 144.697 101.546 144.769L120.446 146.333C121.026 146.339 121.597 146.18 122.09 145.873C122.583 145.566 122.978 145.125 123.228 144.601L135.466 108.757C135.943 107.711 135.466 106.797 134.42 106.726L115.52 105.172C114.943 105.162 114.376 105.316 113.883 105.616C113.39 105.917 112.993 106.351 112.738 106.868Z" fill="#37474F"/>
<path d="M114.984 107.03L102.752 142.9C102.244 143.941 102.752 144.86 103.767 144.931L122.667 146.485C123.248 146.491 123.818 146.332 124.311 146.025C124.804 145.718 125.199 145.277 125.45 144.753L137.687 108.883C138.165 107.837 137.687 106.923 136.641 106.852L117.742 105.298C117.166 105.3 116.603 105.463 116.115 105.77C115.628 106.076 115.236 106.512 114.984 107.03Z" fill="#455A64"/>
<path d="M120.031 109.133C119.997 109.449 119.87 109.748 119.667 109.992C119.463 110.237 119.191 110.415 118.886 110.505C118.581 110.596 118.257 110.593 117.953 110.499C117.649 110.405 117.38 110.223 117.18 109.976C116.979 109.729 116.857 109.428 116.827 109.111C116.798 108.794 116.863 108.476 117.014 108.196C117.165 107.916 117.396 107.688 117.677 107.539C117.958 107.39 118.277 107.328 118.594 107.36C118.804 107.382 119.009 107.445 119.196 107.546C119.382 107.647 119.547 107.783 119.68 107.948C119.814 108.113 119.913 108.302 119.974 108.505C120.034 108.709 120.053 108.922 120.031 109.133Z" fill="#263238"/>
<path d="M35.354 174.793C42.8946 177.332 53.7052 173.189 82.2578 159.733C86.2084 157.869 80.5669 126.458 76.2457 128.225C70.8023 130.459 50.166 140.295 48.7493 141.209C36.7859 148.871 30.2406 173.057 35.354 174.793Z" fill="#F7A9A0"/>
<path d="M65.6016 135.354C65.6016 135.354 74.6553 126.722 80.835 123.675C89.0814 119.572 97.8914 119.43 101.588 119.613C109.301 119.953 127.724 126.107 126.876 131.723C126.109 136.801 107.58 129.56 107.58 129.56C107.58 129.56 127.668 133.831 125.621 139.782C123.575 145.733 102.583 136.065 102.583 136.065C102.583 136.065 123.128 140.914 120.046 146.728C117.715 151.111 98.2113 143.458 98.2113 143.458C98.2113 143.458 115.842 147.754 113.638 152.365C111.205 157.443 92.7476 151.527 92.7476 151.527C85.1766 162.307 77.1587 164.343 71.2887 165.115C69.8365 165.288 65.6016 135.354 65.6016 135.354Z" fill="#F7A9A0"/>
<path d="M100.729 127.605C103.106 128.022 105.518 128.423 107.838 129.053C110.159 129.682 112.485 130.388 114.749 131.226C120.304 133.287 123.458 135.446 123.25 135.334C118.299 132.683 109.981 130.312 107.645 129.687C105.31 129.063 103.019 128.316 100.694 127.692C100.643 127.676 100.674 127.595 100.729 127.605Z" fill="#263238"/>
<path d="M98.3178 135.989C101.329 136.649 104.345 137.197 107.331 137.995C110.317 138.792 113.049 139.797 115.963 140.793C116.187 140.869 116.07 140.965 115.846 140.894C112.896 140.021 110.109 139.432 107.153 138.589C104.198 137.746 101.273 136.791 98.2975 136.05C98.2467 136.045 98.2721 135.979 98.3178 135.989Z" fill="#263238"/>
<path d="M94.967 142.808C99.6234 143.585 104.107 145.22 108.515 146.931C108.733 147.018 108.571 147.124 108.342 147.048C103.863 145.596 100.365 144.418 94.9366 142.986C94.8401 142.945 94.8502 142.778 94.967 142.808Z" fill="#263238"/>
<path d="M56.6691 137.274C54.5263 138.431 52.3834 139.589 50.2914 140.828C48.1993 142.067 46.1022 143.296 44.5027 145.124C42.1009 147.858 40.0253 150.862 38.3179 154.076C37.7272 155.141 37.1966 156.238 36.7285 157.361C38.4509 152.431 41.1933 147.918 44.7769 144.118C48.2247 141.072 52.5307 139.173 56.6691 137.263V137.274Z" fill="#263238"/>
<path d="M103.594 0.182983V25.6229H107.163V31.7975L113.333 25.6229H147.197V0.182983H103.594Z" fill="white"/>
<path d="M103.598 0.182802L103.674 12.9383C103.715 17.18 103.737 21.4115 103.74 25.6328L103.598 25.4805H107.315V25.6278V31.7973L107.036 31.6856L113.2 25.4805L113.256 25.4297H113.332C123.3 25.4297 137.366 25.3536 147.196 25.3688L146.953 25.6125L147.014 0.172646L147.196 0.360525C136.325 0.360525 114.46 0.243735 103.593 0.172646L103.598 0.182802ZM103.598 0.182802C114.46 0.11679 136.335 0.0101556 147.201 0H147.384V0.182802L147.445 25.6227V25.8664H147.201C137.422 25.902 123.265 25.8106 113.337 25.8106L113.47 25.7547L107.285 31.909L107 32.1934V31.7922V25.6227L107.153 25.775H103.598H103.456C103.431 18.3208 103.578 7.74368 103.598 0.192958V0.182802Z" fill="#263238"/>
<path d="M133.639 12.9027C133.639 13.3115 133.76 13.7111 133.987 14.0509C134.214 14.3908 134.537 14.6557 134.914 14.8121C135.292 14.9685 135.708 15.0094 136.109 14.9297C136.509 14.85 136.878 14.6531 137.167 14.3641C137.456 14.0751 137.653 13.7068 137.732 13.3059C137.812 12.905 137.771 12.4895 137.615 12.1119C137.458 11.7342 137.193 11.4114 136.854 11.1844C136.514 10.9573 136.114 10.8361 135.705 10.8361C135.157 10.8361 134.632 11.0538 134.244 11.4414C133.856 11.8289 133.639 12.3546 133.639 12.9027Z" fill="#263238"/>
<path d="M123.324 12.9027C123.324 13.3115 123.445 13.7111 123.673 14.0509C123.9 14.3908 124.222 14.6557 124.6 14.8121C124.978 14.9685 125.393 15.0094 125.794 14.9297C126.195 14.85 126.563 14.6531 126.852 14.3641C127.141 14.0751 127.338 13.7068 127.418 13.3059C127.498 12.905 127.457 12.4895 127.3 12.1119C127.144 11.7342 126.879 11.4114 126.539 11.1844C126.199 10.9573 125.8 10.8361 125.391 10.8361C124.843 10.8361 124.317 11.0538 123.93 11.4414C123.542 11.8289 123.324 12.3546 123.324 12.9027Z" fill="#263238"/>
<path d="M113.018 12.9027C113.018 13.3115 113.139 13.7111 113.366 14.0509C113.593 14.3908 113.916 14.6557 114.293 14.8121C114.671 14.9685 115.087 15.0094 115.487 14.9297C115.888 14.85 116.257 14.6531 116.546 14.3641C116.835 14.0751 117.031 13.7068 117.111 13.3059C117.191 12.905 117.15 12.4895 116.994 12.1119C116.837 11.7342 116.572 11.4114 116.232 11.1844C115.893 10.9573 115.493 10.8361 115.084 10.8361C114.536 10.8361 114.01 11.0538 113.623 11.4414C113.235 11.8289 113.018 12.3546 113.018 12.9027Z" fill="#263238"/>
<path d="M90.0694 82.301V107.741H86.4997V113.91L80.3302 107.741H36.3105V82.301H90.0694Z" fill="white"/>
<path d="M90.0702 82.3014C90.0702 89.9181 90.2378 100.394 90.2124 107.883H90.0702H86.5157L86.663 107.731V113.901V114.302L86.3837 114.017L80.1989 107.863C73.7044 108.036 54.1091 107.914 47.3149 107.98H36.3113H36.0625V107.741L36.1133 82.3014V82.1135H36.3012C49.7015 82.1389 76.6647 82.2202 90.06 82.3014H90.0702ZM90.0702 82.3014C76.6749 82.3877 49.7015 82.469 36.3113 82.4893L36.4992 82.3014L36.5703 107.741L36.3367 107.503C41.8309 107.503 52.8549 107.503 58.344 107.503C58.5877 107.558 80.2954 107.442 80.4833 107.599L86.6427 113.784L86.3583 113.901L86.3329 107.741V107.589H86.4852H90.0397L89.8975 107.731C89.8975 103.51 89.9179 99.2782 89.9585 95.0366L90.0397 82.2811L90.0702 82.3014Z" fill="#263238"/>
<path d="M67.4348 87.5164H41.7969V88.8163H67.4348V87.5164Z" fill="#A6A6A6"/>
<path d="M41.7969 92.3501C55.248 92.0099 69.4608 92.0201 82.9272 92.3501C69.4608 92.6853 55.2582 92.6954 41.7969 92.3501Z" fill="#EBEBEB"/>
<path d="M41.7969 95.8083C55.5679 95.4783 70.8065 95.4783 84.5826 95.8083C70.8065 96.1435 55.573 96.1435 41.7969 95.8083Z" fill="#EBEBEB"/>
<path d="M41.7969 99.2714C52.897 98.9261 64.0733 98.9261 75.1785 99.2714C64.0733 99.6116 52.9021 99.6116 41.7969 99.2714Z" fill="#EBEBEB"/>
<path d="M41.7969 102.729C52.897 102.389 64.0733 102.389 75.1785 102.729C64.0733 103.07 52.9021 103.07 41.7969 102.729Z" fill="#EBEBEB"/>
<path d="M129.723 32.9957V60.4667H133.577V67.1339L140.239 60.4667H193.261V32.9957H129.723Z" fill="white"/>
<path d="M129.723 32.9959L129.8 46.7618C129.84 51.3319 129.86 55.9019 129.866 60.4719L129.723 60.3298H133.73V60.477V67.1442L133.45 67.0274L140.102 60.3501L140.153 60.2942H140.229C155.844 60.2638 177.861 60.2079 193.252 60.2434L193.018 60.477L193.064 33.006L193.252 33.1939C177.414 33.1939 145.551 33.0771 129.713 33.006L129.723 32.9959ZM129.723 32.9959C145.556 32.9248 177.429 32.8181 193.262 32.808H193.475V32.9959L193.521 60.4669V60.7004H193.282C177.973 60.7512 155.803 60.6547 140.26 60.6497L140.392 60.5938L133.715 67.2458L133.43 67.525V67.1188V60.4516L133.582 60.604H129.728H129.586C129.546 52.5607 129.718 41.1356 129.728 32.9908L129.723 32.9959Z" fill="#263238"/>
<path d="M150.293 38.8402H134.633V54.5002H150.293V38.8402Z" fill="#455A64"/>
<path d="M140.219 49.4781V43.8671L145.982 46.67L140.219 49.4781Z" fill="white"/>
<path d="M183.675 38.8402H155.168V40.1401H183.675V38.8402Z" fill="#A6A6A6"/>
<path d="M155.168 43.6743C165.466 43.3341 175.835 43.3341 186.143 43.6743C175.845 44.0146 165.476 44.0146 155.168 43.6743Z" fill="#EBEBEB"/>
<path d="M155.168 47.1322C166.014 46.792 176.942 46.792 187.793 47.1322C176.942 47.4724 166.019 47.4724 155.168 47.1322Z" fill="#EBEBEB"/>
<path d="M155.168 50.5901C162.886 50.2499 170.665 50.2499 178.389 50.5901C170.665 50.9303 162.886 50.9303 155.168 50.5901Z" fill="#EBEBEB"/>
<path d="M155.168 54.0484C162.886 53.7082 170.665 53.7082 178.389 54.0484C170.665 54.3937 162.886 54.3937 155.168 54.0484Z" fill="#EBEBEB"/>
<path d="M75.4462 42.4355V69.9116H71.587V76.5737L64.9249 69.9116H11.9023V42.4355H75.4462Z" fill="white"/>
<path d="M75.4415 42.4355C75.4415 50.6311 75.6192 61.9698 75.5837 70.0537H75.4415H71.5874L71.7397 69.9014V76.5635V76.9646L71.4554 76.6803L64.7781 70.0334L64.9101 70.0842C49.2907 70.0842 27.2834 70.1908 11.8875 70.135H11.6895V69.9014V42.4355V42.2374H11.8824C27.7252 42.2679 59.6139 42.3441 75.4212 42.4253L75.4415 42.4355ZM75.4415 42.4355C59.6088 42.5218 27.71 42.603 11.9027 42.6284L12.0906 42.4355L12.1363 69.9115L11.9027 69.678C27.2073 69.6424 49.3872 69.7034 64.9253 69.7287H65.0066L65.0573 69.7795L71.7093 76.4569L71.43 76.5736V69.9115V69.7592H71.5823H75.4364L75.2942 69.9014C75.2942 65.3415 75.3162 60.7715 75.3602 56.1913L75.4364 42.4202L75.4415 42.4355Z" fill="#263238"/>
<path d="M33.0311 48.2852H17.3711V63.9452H33.0311V48.2852Z" fill="#6B7280"/>
<path opacity="0.2" d="M19.4798 53.2156C19.4044 53.5959 19.4533 53.9903 19.6193 54.3407C19.7852 54.6911 20.0594 54.9789 20.4014 55.1615C20.7434 55.3442 21.1351 55.412 21.5186 55.3551C21.9021 55.2981 22.2571 55.1194 22.5313 54.8452C22.8054 54.5711 22.9842 54.216 23.0411 53.8325C23.0981 53.449 23.0302 53.0574 22.8476 52.7154C22.6649 52.3734 22.3772 52.0992 22.0268 51.9332C21.6764 51.7673 21.2819 51.7184 20.9016 51.7938C20.5505 51.8634 20.2279 52.0356 19.9748 52.2887C19.7217 52.5419 19.5494 52.8644 19.4798 53.2156Z" fill="white"/>
<path opacity="0.2" d="M21.7129 63.9448H33.0364L27.3747 57.0593L21.7129 63.9448Z" fill="white"/>
<path d="M17.3711 63.9449H26.7143L22.0427 59.4612L17.3711 63.9449Z" fill="#6B7280"/>
<path opacity="0.5" d="M17.3711 63.9449H26.7143L22.0427 59.4612L17.3711 63.9449Z" fill="white"/>
<path d="M66.4131 48.2852H37.9062V49.5851H66.4131V48.2852Z" fill="#A6A6A6"/>
<path d="M37.9062 53.1193C48.2041 52.774 58.573 52.774 68.881 53.1193C58.5781 53.4595 48.2091 53.4595 37.9062 53.1193Z" fill="#EBEBEB"/>
<path d="M37.9062 56.5772C48.7576 56.237 59.6799 56.237 70.5312 56.5772C59.6799 56.9174 48.7576 56.9174 37.9062 56.5772Z" fill="#EBEBEB"/>
<path d="M37.9062 60.0351C45.6245 59.6949 53.4038 59.6949 61.1271 60.0351C53.4038 60.3753 45.6245 60.3753 37.9062 60.0351Z" fill="#EBEBEB"/>
<path d="M37.9062 63.4933C45.6245 63.1531 53.4038 63.1531 61.1271 63.4933C53.4038 63.8335 45.6245 63.8335 37.9062 63.4933Z" fill="#EBEBEB"/>
<path d="M134.816 69.3782V96.8492H138.676V103.516L145.338 96.8492H160.825V69.3782H134.816Z" fill="white"/>
<path d="M134.816 69.378L134.969 96.849L134.816 96.7018H138.676H138.838V96.8643L138.863 103.531L138.544 103.399L145.185 96.7119L145.246 96.651L160.825 96.6205L160.581 96.8643C160.581 90.0245 160.581 76.2382 160.622 69.3933L160.825 69.5964L134.816 69.3933V69.378ZM134.816 69.378C141.418 69.3171 154.442 69.2003 161.028 69.1749C161.028 76.1315 161.074 89.8975 161.069 96.849V97.0775H160.825H145.338L145.49 97.0166L138.808 103.658L138.483 103.978V103.526V96.8592L138.65 97.0268H134.791H134.639V96.8744L134.791 69.4034L134.816 69.378Z" fill="#263238"/>
<path d="M155.392 75.2229H139.732V90.8829H155.392V75.2229Z" fill="#6B7280"/>
<path d="M143.824 81.4228C143.823 82.1441 144.036 82.8495 144.436 83.4497C144.836 84.0499 145.405 84.518 146.071 84.7947C146.737 85.0715 147.471 85.1444 148.178 85.0043C148.886 84.8642 149.536 84.5174 150.046 84.0077C150.557 83.498 150.904 82.8484 151.046 82.141C151.187 81.4336 151.115 80.7003 150.839 80.0338C150.563 79.3673 150.096 78.7976 149.496 78.3968C148.896 77.9959 148.191 77.782 147.47 77.782C146.504 77.782 145.577 78.1654 144.894 78.848C144.21 79.5307 143.826 80.4567 143.824 81.4228Z" fill="white"/>
<path d="M153.741 90.888H141.174C141.321 89.3263 142.046 87.8757 143.206 86.8199C144.367 85.7642 145.879 85.1791 147.447 85.1791C149.016 85.1791 150.528 85.7642 151.689 86.8199C152.849 87.8757 153.574 89.3263 153.721 90.888H153.741Z" fill="white"/>
<path d="M83.7547 4.49902V31.97H79.8955V38.6372L73.2334 31.97H57.7461V4.49902H83.7547Z" fill="white"/>
<path d="M83.7543 4.49889L83.9066 31.9699V32.1222H83.7543H79.9002L80.0627 31.9547V38.6218V39.0738L79.7377 38.7539L73.0807 32.1222L73.233 32.1882L57.7457 32.2187H57.502V31.9699C57.502 25.0184 57.502 11.2422 57.5426 4.29578C64.1437 4.3364 77.1683 4.42272 83.7543 4.49889ZM83.7543 4.49889L57.7457 4.702L57.9488 4.49889C57.9793 11.3489 57.9894 25.125 57.9945 31.9699L57.7457 31.7262C57.8422 31.7262 73.2432 31.7566 73.3244 31.7566L73.3854 31.8176L80.0322 38.5L79.7073 38.6371L79.7326 31.9699V31.8074H79.9002H83.7543C83.3481 32.7366 83.8812 4.29578 83.7543 4.48873V4.49889Z" fill="#263238"/>
<path d="M63.1837 26.0034L78.8438 26.0034V10.3434L63.1837 10.3434V26.0034Z" fill="#455A64"/>
<path d="M74.2888 16.3404C74.1263 14.7003 72.9939 13.0703 71.0085 13.0703C69.0231 13.0703 67.8958 14.7003 67.7333 16.3404C67.4845 18.8793 69.1856 21.1694 71.0085 23.2615C72.8365 21.1796 74.5427 18.8793 74.2888 16.3404ZM71.0085 18.1634C70.6532 18.1624 70.3062 18.0561 70.0112 17.858C69.7163 17.6598 69.4867 17.3787 69.3514 17.0502C69.2161 16.7216 69.1812 16.3604 69.2512 16.012C69.3211 15.6637 69.4927 15.3439 69.7443 15.093C69.9959 14.8421 70.3162 14.6714 70.6647 14.6024C71.0133 14.5335 71.3745 14.5694 71.7026 14.7056C72.0308 14.8418 72.3112 15.0722 72.5085 15.3677C72.7058 15.6632 72.8111 16.0105 72.8111 16.3658C72.8131 16.6033 72.7679 16.8389 72.6781 17.0588C72.5883 17.2787 72.4557 17.4786 72.288 17.6468C72.1202 17.815 71.9207 17.9481 71.7011 18.0386C71.4815 18.129 71.246 18.1749 71.0085 18.1735V18.1634Z" fill="white"/>
<path d="M200.895 212.766C136.609 213.076 64.4942 213.081 0.208984 212.766C64.4942 212.451 136.609 212.456 200.895 212.766Z" fill="#263238"/>
</svg>
