<svg width="259" height="291" viewBox="0 0 259 291" fill="none" xmlns="http://www.w3.org/2000/svg">
<path d="M139.952 60.5854C143.73 51.8564 141.184 42.3328 134.267 39.3137C127.35 36.2946 118.681 40.9234 114.903 49.6523C111.126 58.3813 113.671 67.905 120.588 70.9241C127.505 73.9432 136.175 69.3144 139.952 60.5854Z" fill="#455A64"/>
<path d="M171.292 7.18491L169.588 6.88527C161.367 5.43755 152.905 7.1305 145.865 11.6313C138.825 16.132 133.716 23.115 131.543 31.2071C127.46 46.7454 123.146 63.9616 121.748 72.437C118.85 89.9871 135.976 95.7658 135.976 95.7658L133.418 116.911L173.739 122.639L191.103 47.0108C195.868 29.1097 189.407 11.4312 171.292 7.18491Z" fill="#DBDBDB"/>
<path d="M135.814 95.7146C143.997 97.1355 152.413 96.1944 160.084 93.0007C160.084 93.0007 152.539 105.5 135.218 100.851L135.814 95.7146Z" fill="#6F4439"/>
<path d="M135.004 51.7622C134.892 52.4144 135.035 53.0848 135.404 53.6334C135.772 54.1821 136.338 54.5668 136.981 54.7072C137.296 54.789 137.624 54.807 137.945 54.7601C138.267 54.7133 138.576 54.6025 138.855 54.4343C139.133 54.2662 139.376 54.044 139.568 53.7807C139.76 53.5174 139.898 53.2183 139.974 52.9008C140.085 52.2486 139.942 51.5783 139.573 51.0296C139.205 50.4809 138.64 50.0963 137.996 49.9558C137.681 49.8753 137.354 49.8582 137.033 49.9056C136.711 49.9529 136.403 50.0638 136.124 50.2318C135.846 50.3998 135.604 50.6216 135.411 50.8843C135.219 51.147 135.081 51.4454 135.004 51.7622Z" fill="#263238"/>
<path d="M133.786 40.4361C134.041 40.8213 136.198 39.7512 138.9 40.222C141.603 40.6929 143.35 42.388 143.7 42.114C143.87 41.9942 143.657 41.3521 142.907 40.573C141.872 39.5619 140.555 38.8927 139.13 38.6554C137.723 38.4088 136.274 38.6124 134.988 39.2375C134.041 39.7169 133.658 40.2563 133.786 40.4361Z" fill="#263238"/>
<path d="M158.506 54.4674C158.397 55.1183 158.542 55.7865 158.91 56.3332C159.278 56.88 159.842 57.2634 160.484 57.4038C160.798 57.4857 161.125 57.5041 161.446 57.4578C161.768 57.4115 162.076 57.3014 162.355 57.1341C162.633 56.9668 162.876 56.7455 163.068 56.4832C163.261 56.2209 163.399 55.9227 163.476 55.606C163.588 54.955 163.446 54.2857 163.079 53.7373C162.712 53.1888 162.149 52.8034 161.507 52.661C161.192 52.5792 160.863 52.5611 160.541 52.6079C160.219 52.6546 159.909 52.7652 159.63 52.9333C159.351 53.1014 159.108 53.3236 158.915 53.587C158.722 53.8504 158.583 54.1497 158.506 54.4674Z" fill="#263238"/>
<path d="M160.297 45.5726C160.552 45.9578 162.709 44.8877 165.411 45.3585C168.114 45.8294 169.861 47.5245 170.211 47.2505C170.381 47.1307 170.168 46.4886 169.418 45.7095C168.383 44.6984 167.065 44.0292 165.641 43.7919C164.234 43.5411 162.783 43.7449 161.499 44.374C160.561 44.8363 160.211 45.3757 160.297 45.5726Z" fill="#263238"/>
<path d="M146.921 63.799C146.921 63.6449 145.336 63.0627 142.659 62.2409C141.986 62.0525 141.355 61.8042 141.321 61.3163C141.396 60.5901 141.694 59.9052 142.173 59.3558L145.148 54.4846C149.317 47.5245 152.462 41.7629 152.181 41.6431C151.9 41.5232 148.285 46.9766 144.125 53.9367C143.119 55.6489 142.148 57.2926 141.227 58.8593C140.643 59.6104 140.342 60.5439 140.375 61.4961C140.433 61.7552 140.55 61.9976 140.715 62.2051C140.881 62.4127 141.09 62.58 141.329 62.6946C141.697 62.863 142.083 62.9866 142.48 63.0627C145.182 63.6363 146.887 63.9445 146.921 63.799Z" fill="#263238"/>
<path d="M159.981 36.5665C160.22 37.3113 162.675 36.9688 165.539 37.4226C168.403 37.8763 170.731 38.7067 171.123 38.0475C171.293 37.7308 170.893 37.0288 169.963 36.3353C168.751 35.4423 167.33 34.879 165.838 34.7002C164.364 34.495 162.862 34.681 161.481 35.2395C160.424 35.6333 159.887 36.2155 159.981 36.5665Z" fill="#263238"/>
<path d="M135.771 30.625C136.232 31.3356 138.576 31.0873 141.27 31.4811C143.963 31.8749 146.154 32.7481 146.793 32.2002C147.075 31.9348 146.793 31.2585 145.941 30.488C144.7 29.532 143.23 28.9209 141.679 28.7159C140.133 28.4544 138.545 28.6171 137.084 29.1867C135.993 29.709 135.575 30.2825 135.771 30.625Z" fill="#263238"/>
<path d="M134.638 23.4766C134.638 23.4766 141.236 13.3146 147.007 11.6795C153.997 9.7019 155.531 17.2099 161.959 16.5678C168.386 15.9258 175.069 13.9995 180.499 19.821C186.466 26.1733 182.588 29.2381 181.624 37.08C177.737 68.8671 181.94 78.7808 186.228 64.2356C186.697 62.6347 196.841 65.417 199.014 46.7283C200.046 37.6964 196.96 36.8232 196.082 30.1627C195.349 24.5467 194.087 19.3844 189.331 14.3762C181.829 6.47439 169.972 4.27421 161.763 3.6835C153.553 3.09279 136.343 9.61629 134.638 23.4766Z" fill="#263238"/>
<path d="M185.196 63.5508C185.337 62.9098 185.604 62.3039 185.983 61.7692C186.362 61.2344 186.845 60.7817 187.401 60.4382C187.958 60.0947 188.578 59.8672 189.225 59.7695C189.871 59.6718 190.53 59.7059 191.163 59.8695C194.394 60.7256 197.718 63.234 196.278 69.9459C193.763 81.8457 182.263 76.9145 182.315 76.5635C182.366 76.2125 184.079 68.5333 185.196 63.5508Z" fill="#DBDBDB"/>
<path d="M185.895 72.634C185.955 72.634 186.074 72.8223 186.39 73.0534C186.841 73.3701 187.397 73.499 187.941 73.413C189.305 73.2075 190.788 71.4354 191.3 69.3037C191.551 68.2909 191.568 67.2338 191.351 66.2132C191.315 65.8169 191.184 65.4354 190.968 65.1013C190.753 64.7673 190.46 64.4907 190.115 64.2955C189.889 64.1822 189.63 64.1518 189.384 64.2097C189.138 64.2675 188.92 64.41 188.768 64.6123C188.529 64.9119 188.555 65.1602 188.495 65.1687C188.435 65.1773 188.273 64.9205 188.495 64.4496C188.624 64.1662 188.847 63.9364 189.126 63.799C189.506 63.6205 189.939 63.596 190.336 63.7305C190.806 63.9262 191.217 64.2401 191.531 64.642C191.845 65.0439 192.05 65.5202 192.127 66.0248C192.413 67.1627 192.413 68.3542 192.127 69.4921C191.538 71.8806 189.833 73.8667 187.992 74.0037C187.653 74.0314 187.311 73.9828 186.993 73.8613C186.674 73.7399 186.387 73.5487 186.151 73.3017C185.853 72.9678 185.853 72.6511 185.895 72.634Z" fill="#6F4439"/>
<path d="M202.712 72.9992C206.489 64.2703 203.944 54.7466 197.027 51.7275C190.11 48.7084 181.44 53.3372 177.663 62.0661C173.885 70.7951 176.431 80.3188 183.348 83.3379C190.265 86.357 198.934 81.7282 202.712 72.9992Z" fill="#455A64"/>
<path d="M193.652 54.8784C193.871 54.8634 194.09 54.8634 194.308 54.8784C194.946 54.8855 195.579 54.9924 196.184 55.1952C197.141 55.5382 198.013 56.0842 198.741 56.7961C199.713 57.7358 200.477 58.8705 200.983 60.1263C201.594 61.6569 201.885 63.2978 201.836 64.9462C201.888 66.8397 201.641 68.7296 201.102 70.5451C200.475 72.5563 199.502 74.4423 198.23 76.1183C196.821 77.9267 194.996 79.3635 192.91 80.3046C191.967 80.7346 190.936 80.9313 189.901 80.8782C188.663 80.7913 187.458 80.4337 186.371 79.8303C185.285 79.227 184.342 78.3925 183.61 77.3853C182.294 75.4873 181.562 73.2427 181.505 70.9303C181.37 67.0425 182.515 63.2185 184.761 60.0493C186.241 57.8909 188.362 56.2578 190.822 55.3835C191.491 55.1709 192.179 55.0246 192.876 54.9469H193.422H193.609C193.609 54.9469 193.362 54.9469 192.893 55.0668C192.209 55.1767 191.535 55.3486 190.882 55.5804C188.491 56.4901 186.442 58.1236 185.017 60.2547C182.853 63.3824 181.764 67.1334 181.914 70.9389C181.978 73.164 182.689 75.3216 183.96 77.1456C184.655 78.1 185.549 78.8907 186.58 79.4628C187.61 80.035 188.752 80.3748 189.927 80.4587C190.89 80.5049 191.851 80.3231 192.731 79.928C194.734 79.0162 196.489 77.633 197.846 75.8957C200.274 72.7928 201.544 68.934 201.435 64.989C201.495 63.3842 201.225 61.7843 200.642 60.289C200.163 59.0611 199.437 57.9451 198.511 57.0101C197.812 56.3066 196.977 55.7557 196.056 55.3921C195.281 55.1139 194.473 54.9412 193.652 54.8784Z" fill="#263238"/>
<path d="M127.068 23.3911C130.589 20.0504 135.094 17.9474 139.906 17.3984C154.594 15.8403 174.498 17.7665 191.752 41.2836L199.006 46.7712C199.006 46.7712 201.751 33.7071 199.509 26.3447C198.657 23.5024 194.514 8.63191 172.418 2.67344C172.418 2.63063 137.835 -10.2708 127.068 23.3911Z" fill="#455A64"/>
<g opacity="0.3">
<path d="M127.068 23.391C130.589 20.0502 135.094 17.9473 139.906 17.3982C154.594 15.8401 174.498 17.7664 191.752 41.2835L199.006 46.7711C199.579 43.945 199.974 41.0858 200.191 38.2101C200.507 34.0837 200.387 29.2638 199.629 26.6955C198.631 23.3738 194.463 8.63176 172.418 2.63905C172.418 2.63049 137.835 -10.271 127.068 23.391Z" fill="black"/>
</g>
<path d="M191.751 41.2409C184.83 30.6766 174.788 23.5452 163.996 17.3642C153.204 11.1831 135.533 5.22465 123.394 2.39095C119.745 1.53485 115.952 0.807162 112.312 1.53485C108.672 2.26253 105.134 4.71099 104.342 8.26381C103.361 12.707 111.647 19.3332 115.526 21.9614C119.404 24.5897 131.432 31.6868 131.432 31.6868C131.432 31.6868 134.271 20.3434 143.051 18.9137C161.268 15.9002 192.323 41.686 191.751 41.2409Z" fill="#455A64"/>
<path d="M193.15 16.4651C190.84 11.7994 188.453 9.68481 186.637 7.45895C184.21 5.1909 181.413 3.35794 178.368 2.03982C170.91 -1.11063 161.516 0.327618 161.516 0.327618C172.597 1.8686 181.804 4.49683 184.361 11.0203C193.84 28.228 189.859 51.9762 189.859 51.9762L196.602 52.4385C196.602 52.4385 201.129 32.6797 193.15 16.4651Z" fill="#455A64"/>
<path d="M198.733 52.6182C198.69 52.6781 198.162 52.3015 197.216 51.9419C195.978 51.4784 194.667 51.2435 193.346 51.2485C192.015 51.2582 190.688 51.3669 189.373 51.5738C188.827 51.69 188.269 51.7417 187.711 51.7279C188.223 51.4961 188.766 51.3404 189.322 51.2656C190.644 50.9585 191.997 50.8034 193.354 50.8033C194.73 50.7985 196.09 51.0905 197.344 51.6594C197.877 51.8616 198.354 52.1906 198.733 52.6182Z" fill="#263238"/>
<path d="M150.945 18.9222C150.13 17.6883 148.904 16.7864 147.487 16.3785C146.07 15.9705 144.555 16.0832 143.213 16.6963C141.943 12.6641 139.07 8.99138 135.132 7.50176C131.193 6.01214 126.258 6.97954 123.683 10.3269C121.109 13.6743 121.697 19.2132 125.243 21.4562C123.257 23.6821 124.041 27.4489 126.3 29.4265C128.559 31.4041 131.782 31.7637 134.731 31.4041C138.516 30.9418 142.505 28.9985 143.75 25.4114C143.844 27.5859 146.086 29.2467 148.242 29.1697C149.322 29.0715 150.363 28.7236 151.286 28.1533C152.209 27.5829 152.988 26.8056 153.562 25.8823C154.791 24.2456 155.739 22.4139 156.366 20.4631L150.945 18.9222Z" fill="#263238"/>
<path d="M146.384 71.2558L146.75 70.8448L153.391 68.7303C153.74 68.5811 154.123 68.5308 154.499 68.5847C154.929 68.7308 155.286 69.0373 155.497 69.4408C155.904 70.1225 156.142 70.8927 156.191 71.6863C156.24 72.4799 156.098 73.2736 155.777 74.0005C155.456 74.7274 154.966 75.3662 154.348 75.8628C153.73 76.3595 153.001 76.6995 152.225 76.8542C151.448 77.0088 150.646 76.9736 149.886 76.7515C149.126 76.5294 148.43 76.1268 147.857 75.5779C147.284 75.029 146.852 74.3497 146.595 73.5975C146.339 72.8452 146.266 72.0421 146.384 71.2558Z" fill="#6F4439"/>
<path d="M148.626 76.1954C149.705 76.5532 150.843 76.6929 151.976 76.6063C152.533 76.5703 153.08 76.4431 153.596 76.2296C154.172 75.9791 154.689 75.6085 155.113 75.1424C155.561 74.6322 155.83 73.9887 155.88 73.3103C155.929 72.5527 155.839 71.7926 155.616 71.0673C155.505 70.6821 155.386 70.2968 155.249 69.9287C155.146 69.578 155.006 69.2394 154.832 68.9185C154.533 68.3792 153.877 68.4905 153.229 68.7473L149.691 70.0657C148.617 70.5221 147.501 70.8719 146.358 71.1101C147.351 70.4953 148.405 69.9874 149.504 69.5948L152.99 68.1309C153.366 67.9672 153.767 67.8715 154.175 67.8484C154.422 67.8473 154.666 67.9096 154.882 68.0295C155.098 68.1493 155.281 68.3228 155.411 68.5333C155.624 68.8981 155.796 69.2857 155.923 69.689C156.059 70.0743 156.187 70.4681 156.298 70.879C156.548 71.687 156.643 72.5352 156.579 73.3788C156.502 74.2004 156.157 74.9736 155.599 75.579C155.136 76.0651 154.578 76.451 153.961 76.713C153.344 76.9751 152.68 77.1077 152.01 77.1029C151.14 77.1482 150.27 77.0142 149.453 76.7091C148.856 76.4693 148.6 76.2296 148.626 76.1954Z" fill="#263238"/>
<path d="M19.5577 251.285C19.5577 250.592 19.3191 237.382 21.1859 229.275C23.0528 221.168 34.9444 207.273 41.0053 200.099C47.0662 192.925 59.6568 170.915 64.0895 161.643C68.5222 152.371 71.7615 142.269 77.6093 137.715C80.7895 135.163 84.2164 132.937 87.8387 131.072C87.8387 131.072 88.0773 188.747 87.8387 189.672C87.6 190.596 69.4258 215.843 65.9223 223.06C62.4187 230.277 50.5356 241.586 50.0753 242.288C49.615 242.99 40.9797 255.258 40.9797 255.258L19.5577 251.285Z" fill="#DBDBDB"/>
<path d="M0.00234236 280.624C-0.0658533 280.341 1.36626 270.719 2.83246 267.517C4.29867 264.315 13.9654 258.203 16.608 256.259C18.1948 255.054 19.2403 253.265 19.5148 251.285L40.9624 255.223C40.9624 255.223 39.9224 258.785 40.9624 259.949C42.8528 262.47 44.6029 265.093 46.2049 267.808C47.279 269.657 51.3196 269.948 50.6973 272.277C50.075 274.606 48.7452 276.155 46.2049 276.061C43.6646 275.967 42.0023 274.991 39.8542 275.094C37.706 275.196 36.9218 276.446 33.6995 274.606C31.5705 273.289 29.7127 271.574 28.2268 269.555L24.4249 270.137C24.4249 270.137 17.1962 289.356 14.6559 289.938C12.1156 290.521 10.4533 290.906 10.6494 287.516C10.8455 284.125 14.6559 271.301 14.6559 271.301V269.015C14.6559 269.015 11.1353 271.738 10.5471 273.775C9.94101 276.209 9.08394 278.574 7.98976 280.829C5.43242 285.11 2.75574 281.429 2.75574 281.429C2.75574 281.429 0.488236 282.756 0.00234236 280.624Z" fill="#DBDBDB"/>
<path d="M29.6762 269.015C29.3238 269.149 28.9579 269.244 28.585 269.298C27.8775 269.443 26.8802 269.64 25.5503 269.82C24.2205 270 22.7287 270.171 21.0153 270.291C20.0892 270.426 19.144 270.32 18.2704 269.983C18.0287 269.869 17.8125 269.707 17.6351 269.507C17.4578 269.307 17.323 269.073 17.239 268.818C17.0862 268.297 17.1102 267.74 17.3072 267.235C17.497 266.748 17.7875 266.307 18.1596 265.942C18.5117 265.597 18.9141 265.308 19.3531 265.086C20.2055 264.692 20.9898 264.281 21.7399 263.861C23.2317 263.005 24.5615 262.252 25.6952 261.61C26.829 260.968 27.7582 260.488 28.4146 260.18C28.7462 259.999 29.0982 259.858 29.4631 259.761C29.1559 259.979 28.8308 260.171 28.4913 260.334C27.8605 260.685 26.9569 261.19 25.8487 261.884C24.7405 262.577 23.4363 263.373 21.936 264.221C21.1943 264.649 20.3845 265.077 19.5491 265.479C18.7353 265.898 18.0885 266.584 17.7164 267.423C17.5543 267.835 17.5304 268.289 17.6482 268.716C17.7193 268.919 17.8318 269.106 17.9786 269.264C18.1253 269.421 18.3031 269.547 18.5006 269.632C19.3167 269.937 20.1954 270.034 21.058 269.914C22.7628 269.82 24.2972 269.683 25.5844 269.537C26.8716 269.392 27.9031 269.255 28.6191 269.161C28.9662 269.079 29.3201 269.031 29.6762 269.015Z" fill="#6F4439"/>
<path d="M43.1192 266.635C41.8628 267.52 40.6588 268.478 39.5134 269.503C38.4811 270.643 37.5216 271.846 36.6406 273.107C37.1436 271.601 38.0243 270.251 39.198 269.186C40.2712 268.019 41.6197 267.142 43.1192 266.635Z" fill="#6F4439"/>
<path d="M43.5627 270.847C43.5116 270.847 43.5627 270.547 43.8185 270.179C44.1578 269.705 44.6294 269.341 45.1739 269.135C45.7199 268.935 46.3115 268.896 46.8788 269.024C47.305 269.135 47.5266 269.306 47.501 269.357C46.7706 269.301 46.0359 269.368 45.3273 269.554C44.1935 269.974 43.6736 270.916 43.5627 270.847Z" fill="#6F4439"/>
<path d="M13.9654 261.439C13.9654 261.507 12.7635 262.106 10.8881 263.237C9.78674 263.897 8.76793 264.687 7.8534 265.591C6.75637 266.691 5.94801 268.047 5.50066 269.537C5.01476 271.121 4.76755 272.722 4.44362 274.143C4.11969 275.564 3.86396 276.831 3.59118 277.944C3.31839 279.057 3.16496 279.802 3.00299 280.513C2.94657 280.831 2.85211 281.142 2.72168 281.437C2.72122 281.114 2.75841 280.793 2.8325 280.478C2.95184 279.776 3.10529 278.912 3.2843 277.91C3.46331 276.908 3.74462 275.504 4.00888 274.1C4.27314 272.696 4.54592 271.078 5.04886 269.435C5.51174 267.875 6.36934 266.462 7.538 265.334C8.48598 264.433 9.54614 263.659 10.692 263.031C11.6638 262.483 12.4737 262.106 13.0363 261.85C13.327 261.673 13.6393 261.535 13.9654 261.439Z" fill="#6F4439"/>
<path d="M18.4234 263.416C17.4101 265.413 15.9514 267.147 14.1611 268.484C14.7684 267.569 15.456 266.709 16.2155 265.916C16.8784 265.021 17.6171 264.184 18.4234 263.416Z" fill="#6F4439"/>
<path d="M59.2726 220.217C59.1873 220.217 59.0168 219.044 58.369 217.255C57.9861 216.208 57.5185 215.195 56.971 214.225C55.6089 211.857 53.7921 209.785 51.6261 208.129C50.7383 207.46 49.7975 206.864 48.8131 206.348C47.1082 205.492 45.9915 205.133 46.017 205.047C46.308 205.073 46.5945 205.136 46.8695 205.235C47.1861 205.319 47.4966 205.425 47.7987 205.552C48.2091 205.699 48.6105 205.871 49.0006 206.066C50.0231 206.539 50.9968 207.113 51.9074 207.778C53.0242 208.605 54.0526 209.546 54.9762 210.586C55.8872 211.644 56.6898 212.791 57.3716 214.011C57.9147 215.007 58.3628 216.054 58.7099 217.135C58.8456 217.548 58.9594 217.969 59.0509 218.394C59.1376 218.711 59.2003 219.034 59.2385 219.361C59.2915 219.643 59.3029 219.932 59.2726 220.217Z" fill="#6F4439"/>
<path d="M232.669 160.359C232.669 160.359 252.181 207.085 253.128 210.869C254.244 215.32 247.254 237.048 247.254 237.048L226.949 234.292L223.88 215.646L209.482 190.168L210.88 172.883L232.669 160.359Z" fill="#DBDBDB"/>
<path d="M242.463 200.279C242.463 200.364 241.202 200.655 239.267 201.477C238.134 201.965 237.04 202.537 235.993 203.19C233.423 204.764 231.158 206.795 229.31 209.182C228.554 210.156 227.873 211.187 227.273 212.264C226.25 214.105 225.815 215.355 225.738 215.321C225.784 215.025 225.87 214.737 225.994 214.464C226.101 214.119 226.232 213.781 226.386 213.454C226.567 213.01 226.772 212.575 227 212.153C227.572 211.037 228.236 209.972 228.986 208.968C229.912 207.735 230.948 206.589 232.08 205.544C233.231 204.531 234.469 203.622 235.78 202.83C236.87 202.192 238.01 201.645 239.19 201.195C239.684 200.989 240.145 200.861 240.554 200.733C240.894 200.616 241.242 200.522 241.594 200.45C241.875 200.355 242.167 200.298 242.463 200.279Z" fill="#6F4439"/>
<path d="M226.523 227.323C226.523 227.323 223.258 229.138 220.437 231.107C217.615 233.076 218.237 234.309 217.027 234.309C215.816 234.309 213.66 233.941 213.199 236.766C212.739 239.591 215.561 240.824 220.334 240.336C220.334 240.336 224.256 242.425 227.316 241.928C230.376 241.432 229.873 242.005 229.873 242.005C229.873 242.005 229.021 250.566 233.232 250.66C233.824 250.763 234.432 250.627 234.925 250.283C235.418 249.938 235.756 249.413 235.866 248.82C236.22 246.705 236.425 244.568 236.48 242.425C236.48 242.425 239.54 242.425 240.154 244.762C240.767 247.099 240.52 257.792 243.461 258.656C246.402 259.521 246.769 258.656 246.769 258.656V249.325L247.254 246.003C247.254 246.003 247.135 256.456 248.601 258.057C250.068 259.658 253.426 258.554 253.281 257.321C253.136 256.088 253.281 247.116 253.281 247.116C253.281 247.116 253.503 246.5 254.236 249.573C254.969 252.647 254.117 255.472 256.444 255.566C258.771 255.66 259.257 256.55 258.89 251.876C258.524 247.202 259.376 245.481 257.663 243.024C255.949 240.567 249.181 230.336 249.181 230.336L226.523 227.323Z" fill="#DBDBDB"/>
<path d="M223.675 233.53C223.735 233.53 223.974 233.966 224.238 234.763C224.647 235.823 224.647 236.998 224.238 238.059C223.957 238.633 223.516 239.112 222.968 239.437C222.54 239.697 222.078 239.896 221.595 240.028C221.173 240.194 220.719 240.267 220.266 240.242C220.654 240.023 221.065 239.851 221.493 239.728C222.478 239.429 223.313 238.765 223.829 237.87C224.196 236.9 224.238 235.836 223.948 234.84C223.805 234.416 223.713 233.976 223.675 233.53Z" fill="#6F4439"/>
<path d="M229.319 235.85C229.641 236.829 229.82 237.85 229.847 238.88C230.017 239.899 230.042 240.937 229.924 241.962C229.434 239.964 229.23 237.906 229.319 235.85Z" fill="#6F4439"/>
<path d="M236.249 244.377C236.293 243.686 236.398 243.002 236.565 242.33C236.897 240.73 236.897 239.077 236.565 237.476C236.356 236.614 235.957 235.809 235.397 235.122C234.934 234.571 234.351 234.134 233.692 233.847C233.065 233.607 232.402 233.476 231.731 233.461C232.41 233.217 233.157 233.251 233.811 233.555C234.541 233.827 235.194 234.274 235.712 234.857C236.333 235.577 236.772 236.438 236.991 237.365C237.348 239.027 237.301 240.751 236.855 242.39C236.733 243.075 236.53 243.741 236.249 244.377Z" fill="#6F4439"/>
<path d="M246.64 249.325C246.597 248.631 246.617 247.935 246.7 247.245C246.839 245.604 246.703 243.952 246.299 242.356C245.85 240.78 244.848 239.421 243.478 238.529C242.883 238.213 242.253 237.966 241.603 237.793C241.603 237.793 241.799 237.75 242.165 237.793C242.681 237.86 243.18 238.019 243.64 238.264C245.144 239.134 246.251 240.559 246.726 242.236C247.15 243.882 247.248 245.595 247.016 247.279C246.978 247.974 246.852 248.662 246.64 249.325Z" fill="#6F4439"/>
<path d="M253 249.111C252.932 249.111 253.17 248.383 253.273 247.193C253.416 245.653 253.174 244.102 252.568 242.68C251.962 241.258 251.012 240.01 249.803 239.052C248.882 238.315 248.201 237.999 248.235 237.93C248.875 238.083 249.475 238.376 249.991 238.786C251.306 239.718 252.338 240.998 252.973 242.484C253.608 243.969 253.821 245.602 253.588 247.202C253.542 247.875 253.34 248.529 253 249.111Z" fill="#6F4439"/>
<path d="M224.144 128.666C219.029 119.018 205.331 114.24 205.331 114.24C205.331 114.403 205.919 134.684 204.922 155.333C204.444 165.23 206.158 194.226 205.834 194.971L240.008 172.558C240.562 171.719 229.259 138.314 224.144 128.666Z" fill="#757575"/>
<path d="M106.746 115.473C102.497 114.971 98.1903 115.49 94.1809 116.989C90.1715 118.488 86.5747 120.924 83.6875 124.094C73.765 135.001 47.4756 181.256 47.4756 181.256L88.6061 198.883C88.6061 198.883 108.298 161.215 108.664 159.503C109.031 157.79 118.817 129.513 106.746 115.473Z" fill="#757575"/>
<path d="M205.322 114.24C194.027 110.611 190.251 110.131 177.575 107.529C162.794 114.634 150.987 116.629 134.68 106.185L94.0014 117.04L86.6533 275.795H208.655C208.655 275.795 208.007 120.576 205.322 114.24Z" fill="#757575"/>
<path d="M162.725 158.433H138.84V227.862H162.725V158.433Z" fill="white"/>
<path d="M179.221 107.863L169.844 266.635L209.491 264.88L207.701 193.73L209.491 116.038C209.491 116.038 202.373 111.647 179.221 107.863Z" fill="#455A64"/>
<path d="M207.82 159.811C207.843 159.95 207.843 160.091 207.82 160.23C207.82 160.556 207.82 160.958 207.82 161.437V165.863C207.82 169.673 207.777 174.81 207.743 180.486C207.709 186.162 207.743 191.298 207.743 195.099C207.743 196.923 207.743 198.421 207.743 199.534C207.743 200.013 207.743 200.39 207.743 200.741C207.763 200.88 207.763 201.021 207.743 201.16C207.704 201.024 207.684 200.883 207.684 200.741C207.684 200.416 207.641 200.013 207.615 199.534C207.556 198.489 207.513 196.966 207.462 195.108C207.368 191.367 207.325 186.196 207.351 180.486C207.377 174.775 207.462 169.605 207.556 165.863C207.615 164.049 207.666 162.55 207.701 161.429C207.701 160.949 207.701 160.573 207.76 160.23C207.77 160.089 207.789 159.949 207.82 159.811Z" fill="#263238"/>
<path d="M182.426 174.262C182.438 174.41 182.438 174.559 182.426 174.707V175.965C182.426 177.096 182.426 178.679 182.477 180.683C182.477 184.749 182.537 190.476 182.579 197.325L182.477 197.154L195.076 204.003H194.829L201.231 198.815L203.345 197.103L203.26 197.274C203.328 189.338 203.388 181.958 203.447 175.666L203.618 175.854L188.274 174.707L183.952 174.356L182.801 174.262L182.392 174.21H182.758L183.875 174.27L188.137 174.519L203.686 175.529H203.865V175.7C203.865 181.984 203.788 189.398 203.746 197.3V197.402L203.669 197.471L201.546 199.183L195.144 204.32L195.034 204.414L194.906 204.337L182.375 197.496L182.272 197.436V197.325C182.315 190.425 182.349 184.646 182.375 180.554C182.375 178.568 182.417 177.001 182.426 175.88C182.426 175.375 182.426 174.972 182.426 174.664C182.412 174.53 182.412 174.396 182.426 174.262Z" fill="#263238"/>
<path d="M181.982 149.084L180.218 149.589L181.923 150.017C182.445 150.149 182.924 150.416 183.311 150.791C183.699 151.167 183.981 151.638 184.13 152.157L184.633 153.947L185.239 152.055C185.401 151.564 185.682 151.122 186.057 150.767C186.432 150.413 186.889 150.158 187.387 150.026L189.041 149.589L187.259 149.075C186.761 148.934 186.306 148.669 185.938 148.304C185.57 147.938 185.3 147.485 185.153 146.986L184.633 145.223L184.13 146.978C183.984 147.485 183.708 147.946 183.332 148.315C182.956 148.684 182.491 148.949 181.982 149.084Z" fill="#EBEBEB"/>
<path d="M179.212 166.283L178.129 166.583L179.16 166.848C179.48 166.928 179.772 167.092 180.008 167.322C180.245 167.552 180.417 167.84 180.507 168.158L180.823 169.262L181.189 168.098C181.287 167.796 181.46 167.524 181.691 167.307C181.922 167.09 182.204 166.935 182.51 166.857L183.516 166.583L182.434 166.274C182.127 166.189 181.846 166.027 181.619 165.802C181.393 165.577 181.227 165.298 181.138 164.99L180.823 163.912L180.516 164.99C180.426 165.299 180.259 165.58 180.031 165.807C179.802 166.033 179.521 166.197 179.212 166.283Z" fill="#EBEBEB"/>
<path d="M180.584 133.614L179.493 133.922L180.533 134.188C180.853 134.266 181.147 134.428 181.384 134.659C181.621 134.889 181.792 135.178 181.88 135.497L182.195 136.593L182.562 135.429C182.66 135.127 182.833 134.855 183.064 134.638C183.295 134.421 183.577 134.266 183.883 134.188L184.889 133.922L183.807 133.606C183.499 133.52 183.219 133.358 182.992 133.133C182.765 132.908 182.6 132.629 182.511 132.321L182.195 131.243L181.889 132.321C181.799 132.63 181.632 132.911 181.403 133.138C181.175 133.364 180.893 133.528 180.584 133.614Z" fill="#EBEBEB"/>
<path d="M188.214 141.105L187.668 141.259L188.188 141.396C188.349 141.438 188.496 141.52 188.615 141.636C188.735 141.751 188.822 141.896 188.87 142.055L189.023 142.603L189.211 142.021C189.26 141.87 189.345 141.734 189.46 141.625C189.575 141.516 189.715 141.437 189.867 141.396L190.379 141.259L189.833 141.105C189.679 141.061 189.538 140.978 189.425 140.865C189.311 140.751 189.229 140.609 189.185 140.454L189.023 139.915L188.87 140.454C188.825 140.61 188.741 140.752 188.626 140.865C188.511 140.979 188.369 141.062 188.214 141.105Z" fill="#EBEBEB"/>
<path d="M183.559 160.29L183.014 160.436L183.534 160.573C183.695 160.613 183.843 160.695 183.963 160.811C184.082 160.926 184.17 161.072 184.216 161.232L184.369 161.789L184.557 161.206C184.607 161.054 184.694 160.916 184.81 160.806C184.926 160.695 185.067 160.615 185.222 160.573L185.733 160.436L185.179 160.282C185.026 160.239 184.886 160.157 184.772 160.045C184.659 159.933 184.576 159.793 184.531 159.64L184.369 159.092L184.216 159.64C184.168 159.794 184.083 159.934 183.968 160.047C183.854 160.161 183.713 160.244 183.559 160.29Z" fill="#EBEBEB"/>
<path d="M204.607 246.166C204.321 245.866 204.062 245.542 203.831 245.198C203.354 244.565 202.689 243.623 201.888 242.45C200.285 240.105 198.171 236.791 196.023 233.033C193.875 229.275 192.119 225.739 190.908 223.154C190.311 221.861 189.842 220.808 189.544 220.072C189.364 219.701 189.219 219.314 189.109 218.916C189.34 219.258 189.537 219.623 189.698 220.003C190.09 220.791 190.593 221.801 191.189 223.017C192.451 225.585 194.258 229.009 196.389 232.811C198.52 236.612 200.6 239.908 202.135 242.288L203.959 245.113C204.209 245.442 204.426 245.794 204.607 246.166Z" fill="#263238"/>
<path d="M203.601 181.693C202.566 181.698 201.533 181.635 200.506 181.505C198.597 181.342 195.971 181.136 193.056 180.974C190.141 180.811 187.507 180.726 185.597 180.674C184.56 180.694 183.524 180.643 182.494 180.52C182.773 180.454 183.06 180.423 183.347 180.426C183.884 180.426 184.651 180.375 185.614 180.357C187.532 180.357 190.175 180.357 193.099 180.529C196.022 180.7 198.656 180.948 200.557 181.188C201.504 181.308 202.262 181.419 202.799 181.513C203.073 181.54 203.342 181.6 203.601 181.693Z" fill="#263238"/>
<g opacity="0.3">
<path d="M182.886 197.573C182.886 197.573 192.084 210.475 195.434 207.795C198.784 205.116 203.523 197.325 203.523 197.325L194.999 204.225L182.886 197.573Z" fill="black"/>
</g>
<g opacity="0.3">
<path d="M87.1049 264.88L86.96 269.144L136.146 271.926L129.335 145.874L87.1049 264.88Z" fill="black"/>
</g>
<path d="M88.6484 119.805L89.6202 211.656L87.1055 264.923L131.671 268.527L130.555 179.647L128.321 107.212C128.321 107.212 95.9709 112.665 88.6484 119.805Z" fill="#455A64"/>
<path d="M89.2107 149.717C89.2452 149.918 89.2652 150.121 89.2703 150.325C89.2703 150.762 89.3385 151.344 89.3811 152.037C89.4664 153.553 89.5431 155.736 89.6283 158.441C89.7818 163.86 89.8756 171.342 89.8329 179.595C89.7903 187.848 89.6795 195.339 89.5431 200.758C89.4579 203.421 89.3897 205.595 89.347 207.162C89.347 207.881 89.2874 208.463 89.2618 208.874C89.2619 209.075 89.2448 209.275 89.2107 209.473C89.1902 209.271 89.1902 209.067 89.2107 208.865V207.153C89.2107 205.586 89.2107 203.412 89.2618 200.741C89.3044 195.279 89.3641 187.831 89.4238 179.587C89.4834 171.342 89.4238 163.852 89.347 158.441C89.3044 155.778 89.2703 153.595 89.2362 152.037C89.2362 151.31 89.2362 150.736 89.2362 150.325C89.2053 150.124 89.1967 149.92 89.2107 149.717Z" fill="#263238"/>
<path d="M121.493 149.735L123.266 150.231L121.561 150.668C121.039 150.799 120.56 151.066 120.173 151.442C119.785 151.817 119.503 152.288 119.353 152.808L118.851 154.597L118.245 152.705C118.084 152.214 117.803 151.771 117.428 151.416C117.053 151.062 116.595 150.808 116.097 150.676L114.443 150.231L116.225 149.726C116.724 149.586 117.18 149.32 117.55 148.955C117.92 148.59 118.191 148.136 118.339 147.637L118.851 145.874L119.353 147.586C119.496 148.098 119.768 148.565 120.143 148.942C120.518 149.318 120.983 149.591 121.493 149.735Z" fill="#EBEBEB"/>
<path d="M124.272 166.899L125.355 167.199L124.315 167.464C123.996 167.545 123.703 167.708 123.467 167.938C123.23 168.168 123.058 168.456 122.968 168.774L122.653 169.87L122.286 168.714C122.189 168.413 122.018 168.142 121.788 167.925C121.559 167.708 121.278 167.552 120.973 167.473L119.959 167.199L121.05 166.891C121.355 166.803 121.633 166.639 121.858 166.414C122.083 166.19 122.248 165.912 122.337 165.607L122.653 164.528L122.968 165.607C123.058 165.916 123.225 166.197 123.453 166.423C123.681 166.649 123.963 166.813 124.272 166.899Z" fill="#EBEBEB"/>
<path d="M122.899 134.265L123.982 134.564L122.942 134.83C122.623 134.912 122.332 135.076 122.096 135.305C121.859 135.535 121.687 135.823 121.595 136.14L121.28 137.244L120.913 136.08C120.816 135.779 120.644 135.507 120.415 135.29C120.186 135.073 119.905 134.918 119.6 134.838L118.586 134.564L119.677 134.256C119.982 134.168 120.26 134.004 120.485 133.78C120.71 133.555 120.875 133.278 120.964 132.972L121.28 131.893L121.595 132.972C121.685 133.281 121.852 133.562 122.08 133.788C122.308 134.015 122.59 134.179 122.899 134.265Z" fill="#EBEBEB"/>
<path d="M115.032 139.624L114.486 139.778L115.006 139.915C115.168 139.955 115.316 140.037 115.435 140.153C115.555 140.269 115.642 140.414 115.688 140.574L115.842 141.122L116.029 140.54C116.081 140.389 116.168 140.253 116.284 140.145C116.4 140.036 116.541 139.957 116.694 139.915L117.206 139.778L116.652 139.624C116.498 139.581 116.358 139.5 116.245 139.387C116.131 139.275 116.048 139.135 116.004 138.982L115.842 138.434L115.688 138.973C115.643 139.129 115.559 139.271 115.444 139.384C115.329 139.498 115.187 139.581 115.032 139.624Z" fill="#EBEBEB"/>
<path d="M112.798 160.17L112.244 160.325L112.773 160.453C112.933 160.494 113.079 160.576 113.198 160.692C113.316 160.807 113.402 160.952 113.446 161.112L113.608 161.669L113.796 161.086C113.844 160.934 113.929 160.797 114.044 160.686C114.158 160.575 114.299 160.495 114.452 160.453L114.963 160.325L114.418 160.162C114.264 160.119 114.123 160.037 114.008 159.925C113.893 159.813 113.809 159.674 113.761 159.52L113.608 158.972L113.455 159.52C113.407 159.674 113.322 159.814 113.207 159.928C113.093 160.041 112.952 160.124 112.798 160.17Z" fill="#EBEBEB"/>
<path d="M108.92 214.225C108.77 214.677 108.588 215.117 108.374 215.543C107.999 216.399 107.436 217.581 106.72 219.053C105.28 222.007 103.208 226.039 100.753 230.396C98.2982 234.754 95.9199 238.615 94.1383 241.372C93.2859 242.75 92.5187 243.854 91.9901 244.608C91.7388 245.011 91.4536 245.392 91.1377 245.746C91.3354 245.316 91.5692 244.904 91.8367 244.513L93.8655 241.2C95.5704 238.409 97.9061 234.531 100.361 230.174C102.816 225.816 104.93 221.827 106.439 218.916L108.221 215.492C108.419 215.051 108.653 214.627 108.92 214.225Z" fill="#263238"/>
</svg>
