<svg fill="#FFFFFF" xmlns="http://www.w3.org/2000/svg"  viewBox="0 0 50 50" width="50px" height="50px"><path d="M 22.970703 2.0898438 A 1.0001 1.0001 0 0 0 22.910156 2.09375 C 11.193229 3.1494197 2 13.009547 2 25 C 2 37.690466 12.309534 48 25 48 C 37.690466 48 48 37.690466 48 25 C 48 22.241313 47.508885 19.584917 46.609375 17.126953 A 1.0001 1.0001 0 0 0 45.044922 16.689453 L 39.994141 20.740234 A 1.0001 1.0001 0 0 0 39.644531 21.738281 C 39.87833 22.785701 40 23.882829 40 25 C 40 33.30003 33.30003 40 25 40 C 16.69997 40 10 33.30003 10 25 C 10 17.339183 15.726121 11.041803 23.123047 10.123047 A 1.0001 1.0001 0 0 0 24 9.1308594 L 24 3.0898438 A 1.0001 1.0001 0 0 0 22.970703 2.0898438 z M 28.980469 2.3710938 A 1.0001 1.0001 0 0 0 28 3.3691406 L 28 8 L 28 9.5 L 28 16.583984 C 27.053902 16.243366 26.06276 16 25 16 C 20.041484 16 16 20.041484 16 25 C 16 29.958516 20.041484 34 25 34 C 29.958516 34 34 29.958516 34 25 L 34 13.107422 C 35.235988 14.043886 36.377867 15.098797 37.273438 16.367188 A 1.0001 1.0001 0 0 0 38.935547 16.324219 L 42.324219 10.964844 A 1.0001 1.0001 0 0 0 42.228516 9.7675781 C 38.894621 6.0051934 34.336787 3.3281772 29.179688 2.3867188 A 1.0001 1.0001 0 0 0 28.980469 2.3710938 z M 22 4.2890625 L 22 8.3300781 C 14.055392 9.7527087 8 16.652394 8 25 C 8 34.37997 15.62003 42 25 42 C 34.37997 42 42 34.37997 42 25 C 42 23.962655 41.84873 22.956385 41.667969 21.962891 L 45.105469 19.203125 C 45.641654 21.054003 46 22.9805 46 25 C 46 36.609534 36.609534 46 25 46 C 13.390466 46 4 36.609534 4 25 C 4 14.414341 11.835121 5.7539258 22 4.2890625 z M 30 4.6757812 C 33.960521 5.6457058 37.477988 7.718878 40.199219 10.582031 L 37.955078 14.132812 C 36.682253 12.61974 35.222661 11.27159 33.501953 10.275391 A 1.0001 1.0001 0 0 0 32 11.140625 L 32 25 C 32 28.877484 28.877484 32 25 32 C 21.122516 32 18 28.877484 18 25 C 18 21.122516 21.122516 18 25 18 C 26.277597 18 27.463879 18.346584 28.498047 18.945312 A 1.0001 1.0001 0 0 0 30 18.078125 L 30 9.5 L 30 8 L 30 4.6757812 z"/></svg>